<svg width="227" height="49" viewBox="0 0 227 49" fill="none" xmlns="http://www.w3.org/2000/svg">
<path d="M23.9562 20.3679C22.8034 22.2393 20.0475 24.6147 15.3642 24.6147C9.90638 24.6147 5.04297 20.8357 5.04297 14.5735C5.04297 8.02327 10.1405 4.53223 15.5443 4.53223C18.0301 4.53223 20.9121 5.41399 23.4159 6.36772V11.9462H23.0736C21.8848 6.58366 18.8587 5.0001 16.1748 5.0001C11.9598 5.0001 7.31256 8.05926 7.58275 14.5735C7.83492 20.2779 12.0859 23.2291 16.517 23.2831C20.5699 23.319 22.7674 21.2136 23.668 20.1159L23.9562 20.3679Z" fill="#D5B084"/>
<path d="M29.0004 28.971H0V-0.000976562H29.0004V28.971ZM2.64785 28.1613H26.3705C27.3792 28.1613 28.1898 27.3515 28.1898 26.3438V2.64429C28.1898 1.63657 27.3792 0.826796 26.3705 0.826796H2.64785C1.63915 0.826796 0.828577 1.63657 0.828577 2.64429V26.3438C0.828577 27.3515 1.63915 28.1613 2.64785 28.1613Z" fill="#D5B084"/>
<path d="M50.3968 18.0143V24.4025H34.96V24.0426H36.7973V4.98588H34.96V4.62598H49.9285V11.0142H49.5862C49.1539 7.28924 48.0371 5.21982 43.9303 5.21982H39.0849V14.3253H43.4439C45.8756 14.3253 46.5061 13.7675 46.9744 11.644H47.2266V17.3845H46.9744C46.4881 15.261 45.8756 14.7032 43.4439 14.7032H39.0849V23.8087H44.3986C48.5055 23.8087 49.6403 21.7753 50.0546 18.0503H50.3968V18.0143Z" fill="#D5B084"/>
<path d="M57.1732 28.971H28.1729V-0.000976562H57.1732V28.971ZM30.8207 28.1433H54.5434C55.5521 28.1433 56.3626 27.3335 56.3626 26.3258V2.62629C56.3626 1.61857 55.5521 0.8088 54.5434 0.8088H30.8207C29.812 0.8088 29.0014 1.61857 29.0014 2.62629V26.3258C29.0014 27.3335 29.812 28.1433 30.8207 28.1433Z" fill="#D5B084"/>
<path d="M81.562 4.60742V4.96732C79.1843 5.4172 78.8241 7.43264 78.8241 10.3298V24.384H77.5812L63.6935 7.09073V18.6436C63.6935 21.5587 64.2879 23.5562 66.6655 24.0061V24.366H60.5593V24.0061C62.9549 23.5562 63.3332 21.5408 63.3332 18.6436V6.60487L62.0003 4.96732H60.127V4.60742H65.0444L78.4458 21.2528V10.3478C78.4458 7.43264 77.8154 5.43519 75.4557 4.98531V4.62541H81.562V4.60742Z" fill="#D5B084"/>
<path d="M85.3431 28.971H56.3428V-0.000976562H85.3431V28.971ZM58.9906 28.1433H82.7133C83.722 28.1433 84.5326 27.3335 84.5326 26.3258V2.62629C84.5326 1.61857 83.722 0.8088 82.7133 0.8088H58.9906C57.9819 0.8088 57.1714 1.61857 57.1714 2.62629V26.3258C57.1714 27.3335 57.9819 28.1433 58.9906 28.1433Z" fill="#D5B084"/>
<path d="M107.859 4.60742V10.7617H107.517C107.264 8.18843 107.264 5.20126 103.41 5.20126H100.149V24.0241H101.987V24.384H96.0245V24.0241H97.8618V5.20126H94.6015C90.7468 5.20126 90.7287 8.18843 90.4946 10.7617H90.1523V4.60742H107.859Z" fill="#D5B084"/>
<path d="M113.516 28.971H84.5156V-0.000976562H113.516V28.971ZM87.1635 28.1433H110.886C111.895 28.1433 112.705 27.3335 112.705 26.3258V2.64429C112.705 1.63657 111.895 0.826796 110.886 0.826796H87.1635C86.1548 0.826796 85.3442 1.63657 85.3442 2.64429V26.3438C85.3442 27.3335 86.1548 28.1433 87.1635 28.1433Z" fill="#D5B084"/>
<path d="M137.651 14.5217C137.651 20.604 133.598 24.5629 127.186 24.5629C120.791 24.5629 116.738 20.604 116.738 14.5217C116.738 8.43937 120.791 4.48047 127.186 4.48047C133.598 4.48047 137.651 8.43937 137.651 14.5217ZM135.039 14.5217C135.039 7.68358 131.22 4.80438 127.168 4.80438C123.115 4.80438 119.332 7.68358 119.332 14.5217C119.332 21.3238 123.115 24.221 127.168 24.221C131.22 24.221 135.039 21.3238 135.039 14.5217Z" fill="#D5B084"/>
<path d="M141.688 28.971H112.688V-0.000976562H141.688V28.971ZM115.335 28.1433H139.058C140.067 28.1433 140.877 27.3335 140.877 26.3258V2.6263C140.877 1.61858 140.067 0.8088 139.058 0.8088H115.335C114.327 0.8088 113.516 1.61858 113.516 2.6263V26.3258C113.516 27.3335 114.327 28.1433 115.335 28.1433Z" fill="#D5B084"/>
<path d="M166.617 4.60686V4.96676C165.465 5.41664 165.014 5.9025 164.24 8.97966L160.295 24.3834H159.809L155.251 8.27785L151.433 24.3834H150.946L145.435 4.96676H144.138V4.60686H149.055V4.96676H147.794L151.811 21.3242L155.81 4.58887H156.62L160.745 21.4862L163.934 9.10562C164.69 6.08246 164.024 5.09273 162.168 4.94877V4.58887H166.617V4.60686Z" fill="#D5B084"/>
<path d="M169.876 28.971H140.876V-0.000976562H169.876V28.971ZM143.506 28.1433H167.228C168.237 28.1433 169.048 27.3335 169.048 26.3258V2.64429C169.048 1.63657 168.237 0.826796 167.228 0.826796H143.506C142.497 0.826796 141.687 1.63657 141.687 2.64429V26.3438C141.687 27.3335 142.497 28.1433 143.506 28.1433Z" fill="#D5B084"/>
<path d="M191.258 17.9772V24.3654H175.821V24.0055H177.659V4.94877H175.821V4.58887H190.79V10.9771H190.448C190.015 7.25213 188.898 5.1827 184.792 5.1827H179.946V14.2882H184.305C186.737 14.2882 187.367 13.7303 187.836 11.6069H188.088V17.3473H187.836C187.349 15.2239 186.737 14.6661 184.305 14.6661H179.946V23.7716H185.26C189.367 23.7716 190.502 21.7381 190.916 18.0132H191.258V17.9772Z" fill="#D5B084"/>
<path d="M198.048 28.971H169.048V-0.000976562H198.048V28.971ZM171.678 28.1433H195.4C196.409 28.1433 197.22 27.3335 197.22 26.3258V2.6263C197.22 1.61858 196.409 0.8088 195.4 0.8088H171.678C170.669 0.8088 169.858 1.61858 169.858 2.6263V26.3258C169.858 27.3335 170.687 28.1433 171.678 28.1433Z" fill="#D5B084"/>
<path d="M218.042 21.6631C218.042 23.2107 218.529 23.7865 219.465 23.7865C220.492 23.7865 220.852 22.7428 220.852 21.3212H221.194C221.194 22.6708 221.032 24.5063 218.601 24.5063C216.709 24.5063 215.52 23.8045 215.52 21.3212V18.406C215.52 15.7427 214.476 14.9869 210.801 14.9869H206.388V23.9485H208.225V24.3084H202.245V23.9485H204.082V4.90971H202.245V4.5498H210.369C215.016 4.5498 218.042 5.79146 218.042 9.89433C218.042 12.6656 216.151 14.663 212.278 14.663V14.771C216.727 14.771 218.042 15.7607 218.042 19.2158V21.6631ZM215.484 9.78636C215.484 6.0074 212.999 5.12565 210.081 5.12565H206.388V14.627H210.099C213.197 14.627 215.484 13.5833 215.484 9.78636Z" fill="#D5B084"/>
<path d="M226.243 28.971H197.242V-0.000976562H226.243V28.971ZM199.872 28.1613H223.595C224.603 28.1613 225.414 27.3515 225.414 26.3438V2.6443C225.414 1.63657 224.603 0.826796 223.595 0.826796H199.872C198.863 0.826796 198.053 1.63657 198.053 2.6443V26.3438C198.071 27.3515 198.881 28.1613 199.872 28.1613Z" fill="#D5B084"/>
<path d="M54.0381 47.2906V49.0001H53.0834V48.1543H49.3008V43.9795H50.2554V47.2906H52.435V43.9795H53.3896V47.2906H54.0381Z" fill="#D5B084"/>
<path d="M59.7301 43.9795V44.8253H56.9742V45.653H59.604V46.4808H56.9742V47.3086H59.7301V48.1543H56.0195V43.9795H59.7301Z" fill="#D5B084"/>
<path d="M62.8834 43.9795V45.635H65.189V43.9795H66.1437V48.1543H65.189V46.4988H62.8834V48.1543H61.9287V43.9795H62.8834Z" fill="#D5B084"/>
<path d="M68.0332 44.8433V43.9795H72.2482V44.8433H70.627V48.1543H69.6723V44.8433H68.0332Z" fill="#D5B084"/>
<path d="M76.7865 43.9795C77.2729 43.9795 77.6692 44.1055 77.9574 44.3394C78.2456 44.5733 78.3897 44.8972 78.3897 45.3111V45.3831C78.3897 45.797 78.2456 46.1209 77.9574 46.3548C77.6692 46.5888 77.2909 46.7147 76.7865 46.7147H75.0933V48.1543H74.1387V43.9795H76.7865ZM77.2368 45.743C77.3449 45.653 77.399 45.5451 77.399 45.3831V45.3111C77.399 45.1492 77.3449 45.0412 77.2368 44.9512C77.1288 44.8613 76.9667 44.8253 76.7505 44.8253H75.0753V45.869H76.7505C76.9667 45.869 77.1288 45.833 77.2368 45.743Z" fill="#D5B084"/>
<path d="M84.2299 48.0104V48.1543H83.2753L82.897 47.2906H80.8075L80.4293 48.1543H79.4746V48.0104L81.3299 43.9795H82.3926L84.2299 48.0104ZM82.5368 46.4628L81.8523 44.9152L81.1678 46.4628H82.5368Z" fill="#D5B084"/>
<path d="M90.2086 48.1543H89.2539V44.8433H87.4526L87.4166 46.4268C87.3986 47.0206 87.2725 47.4525 87.0564 47.7225C86.8222 48.0104 86.4619 48.1543 85.9936 48.1543H85.6514V47.2906H85.8135C86.0837 47.2906 86.2638 47.2186 86.3719 47.0746C86.4799 46.9307 86.534 46.6967 86.534 46.3368L86.57 43.9795H90.2086V48.1543Z" fill="#D5B084"/>
<path d="M93.4674 43.9795V45.4191H95.0885C95.5929 45.4191 95.9891 45.5271 96.2593 45.761C96.5295 45.9949 96.6736 46.3188 96.6736 46.7327V46.8227C96.6736 47.2546 96.5295 47.5785 96.2593 47.8124C95.9891 48.0464 95.5929 48.1543 95.0885 48.1543H92.5127V43.9795H93.4674ZM95.5388 47.1826C95.6469 47.0926 95.7009 46.9847 95.7009 46.8227V46.7507C95.7009 46.6068 95.6469 46.4808 95.5388 46.3908C95.4307 46.3009 95.2686 46.2649 95.0705 46.2649H93.4674V47.3086H95.0705C95.2686 47.3086 95.4307 47.2726 95.5388 47.1826Z" fill="#D5B084"/>
<path d="M99.7174 43.9795V45.635H102.023V43.9795H102.978V48.1543H102.023V46.4988H99.7174V48.1543H98.7627V43.9795H99.7174Z" fill="#D5B084"/>
<path d="M106.221 43.9795V46.8407L108.545 43.9795H109.5V48.1543H108.545V45.2931L106.221 48.1543H105.267V43.9795H106.221Z" fill="#D5B084"/>
<path d="M112.742 43.9792V46.8404L115.065 43.9792H116.02V48.1541H115.065V45.2929L112.742 48.1541H111.787V43.9792H112.742ZM112.868 43.3674C112.634 43.1874 112.526 42.9355 112.526 42.6116V42.5576H113.336V42.6116C113.336 42.7016 113.39 42.7736 113.48 42.8275C113.588 42.8815 113.732 42.8995 113.913 42.8995C114.093 42.8995 114.219 42.8815 114.309 42.8275C114.399 42.7736 114.453 42.7016 114.453 42.6116V42.5576H115.3V42.6116C115.3 43.2954 114.831 43.6373 113.913 43.6373C113.444 43.6193 113.102 43.5473 112.868 43.3674Z" fill="#D5B084"/>
<path d="M127.008 47.2906V49.0001H126.054V48.1543H122.721V49.0001H121.767V47.2906H122.307C122.523 46.9307 122.649 46.4808 122.667 45.923L122.703 43.9795H126.378V47.2906H127.008ZM123.244 47.2906H125.405V44.8433H123.568L123.55 45.9589C123.532 46.4808 123.424 46.9307 123.244 47.2906Z" fill="#D5B084"/>
<path d="M129.906 43.9795H128.952V48.1543H129.906V43.9795Z" fill="#D5B084"/>
<path d="M137.744 48.1543H136.79V45.2751L135.457 48.1543H134.484L133.133 45.2751V48.1543H132.196V43.9795H133.511L134.97 47.0746L136.429 43.9795H137.744V48.1543Z" fill="#D5B084"/>
<path d="M148.73 47.2906V49.0001H147.775V48.1543H144.443V49.0001H143.488V47.2906H144.029C144.245 46.9307 144.371 46.4808 144.389 45.923L144.425 43.9795H148.1V47.2906H148.73ZM144.965 47.2906H147.127V44.8433H145.29L145.272 45.9589C145.254 46.4808 145.163 46.9307 144.965 47.2906Z" fill="#D5B084"/>
<path d="M151.668 43.9795V45.635H153.973V43.9795H154.928V48.1543H153.973V46.4988H151.668V48.1543H150.713V43.9795H151.668Z" fill="#D5B084"/>
<path d="M158.168 43.9795H157.214V48.1543H158.168V43.9795Z" fill="#D5B084"/>
<path d="M164.526 43.9795V48.1543H163.572V44.8433H161.392V48.1543H160.438V43.9795H164.526Z" fill="#D5B084"/>
<path d="M169.481 43.9795C169.967 43.9795 170.363 44.1055 170.652 44.3394C170.94 44.5733 171.084 44.8972 171.084 45.3111V45.3831C171.084 45.797 170.94 46.1209 170.652 46.3548C170.363 46.5888 169.985 46.7147 169.481 46.7147H167.788V48.1543H166.833V43.9795H169.481ZM169.931 45.743C170.039 45.653 170.093 45.5451 170.093 45.3831V45.3111C170.093 45.1492 170.039 45.0412 169.931 44.9512C169.823 44.8613 169.661 44.8253 169.445 44.8253H167.77V45.869H169.445C169.661 45.869 169.823 45.833 169.931 45.743Z" fill="#D5B084"/>
<path d="M176.903 48.0104V48.1543H175.948L175.57 47.2906H173.48L173.102 48.1543H172.147V48.0104L174.003 43.9795H175.065L176.903 48.0104ZM175.21 46.4628L174.525 44.9152L173.841 46.4628H175.21Z" fill="#D5B084"/>
</svg>
