<svg width="66" height="40" viewBox="0 0 66 40" fill="none" xmlns="http://www.w3.org/2000/svg">
<path d="M13.7953 11.7288C13.1314 12.8064 11.5445 14.1742 8.84776 14.1742C5.70501 14.1742 2.90454 11.9982 2.90454 8.39221C2.90454 4.62045 5.83985 2.61023 8.95148 2.61023C10.3828 2.61023 12.0424 3.11797 13.4841 3.66715V6.87936H13.287C12.6025 3.7915 10.8599 2.87964 9.3145 2.87964C6.88743 2.87964 4.21142 4.64118 4.36701 8.39221C4.51222 11.677 6.96003 13.3763 9.51157 13.4074C11.8453 13.4281 13.1107 12.2158 13.6293 11.5837L13.7953 11.7288Z" fill="#D5B084"/>
<path d="M16.6991 16.6829H0V0.00012207H16.6991V16.6829ZM1.5247 16.2166H15.1848C15.7656 16.2166 16.2324 15.7503 16.2324 15.1701V1.52333C16.2324 0.94306 15.7656 0.476774 15.1848 0.476774H1.5247C0.94386 0.476774 0.477115 0.94306 0.477115 1.52333V15.1701C0.477115 15.7503 0.94386 16.2166 1.5247 16.2166Z" fill="#D5B084"/>
<path d="M29.0198 10.3734V14.0519H20.1309V13.8446H21.1888V2.8713H20.1309V2.66406H28.7501V6.34256H28.553C28.3041 4.19763 27.661 3.00601 25.2962 3.00601H22.5061V8.24917H25.0161C26.4164 8.24917 26.7794 7.92795 27.0491 6.70523H27.1943V10.0107H27.0491C26.769 8.78799 26.4164 8.46677 25.0161 8.46677H22.5061V13.7099H25.5658C27.9307 13.7099 28.5841 12.539 28.8227 10.3941H29.0198V10.3734Z" fill="#D5B084"/>
<path d="M32.922 16.6827H16.2229V-0.00012207H32.922V16.6827ZM17.7476 16.206H31.4077C31.9885 16.206 32.4553 15.7397 32.4553 15.1594V1.51272C32.4553 0.932453 31.9885 0.466167 31.4077 0.466167H17.7476C17.1668 0.466167 16.7 0.932453 16.7 1.51272V15.1594C16.7 15.7397 17.1668 16.206 17.7476 16.206Z" fill="#D5B084"/>
<path d="M46.9651 2.65308V2.86032C45.596 3.11937 45.3886 4.27991 45.3886 5.94818V14.0409H44.6729L36.676 4.08303V10.7354C36.676 12.4141 37.0183 13.5642 38.3874 13.8233V14.0305H34.8712V13.8233C36.2507 13.5642 36.4685 12.4037 36.4685 10.7354V3.80325L35.701 2.86032H34.6223V2.65308H37.4539L45.1708 12.2379V5.95855C45.1708 4.27991 44.8077 3.12972 43.449 2.87068V2.66344H46.9651V2.65308Z" fill="#D5B084"/>
<path d="M49.1429 16.6827H32.4438V-0.00012207H49.1429V16.6827ZM33.9685 16.206H47.6286C48.2095 16.206 48.6762 15.7397 48.6762 15.1594V1.51272C48.6762 0.932453 48.2095 0.466167 47.6286 0.466167H33.9685C33.3877 0.466167 32.921 0.932453 32.921 1.51272V15.1594C32.921 15.7397 33.3877 16.206 33.9685 16.206Z" fill="#D5B084"/>
<path d="M62.1084 2.65308V6.19687H61.9113C61.7661 4.71511 61.7661 2.99502 59.5465 2.99502H57.6691V13.8336H58.7271V14.0409H55.2939V13.8336H56.3519V2.99502H54.4745C52.2549 2.99502 52.2445 4.71511 52.1097 6.19687H51.9126V2.65308H62.1084Z" fill="#D5B084"/>
<path d="M65.3658 16.6827H48.6667V-0.00012207H65.3658V16.6827ZM50.1914 16.206H63.8515C64.4324 16.206 64.8991 15.7397 64.8991 15.1594V1.52309C64.8991 0.942816 64.4324 0.476529 63.8515 0.476529H50.1914C49.6106 0.476529 49.1439 0.942816 49.1439 1.52309V15.1698C49.1439 15.7397 49.6106 16.206 50.1914 16.206Z" fill="#D5B084"/>
<path d="M14.3736 24.5786C14.3736 28.081 12.0398 30.3606 8.34737 30.3606C4.66527 30.3606 2.33154 28.081 2.33154 24.5786C2.33154 21.0763 4.66527 18.7966 8.34737 18.7966C12.0398 18.7966 14.3736 21.0763 14.3736 24.5786ZM12.8696 24.5786C12.8696 20.6411 10.6707 18.9831 8.33699 18.9831C6.00327 18.9831 3.82513 20.6411 3.82513 24.5786C3.82513 28.4954 6.00327 30.1637 8.33699 30.1637C10.6707 30.1637 12.8696 28.4954 12.8696 24.5786Z" fill="#D5B084"/>
<path d="M16.6991 32.8987H0V16.2159H16.6991V32.8987ZM1.5247 32.4221H15.1848C15.7656 32.4221 16.2324 31.9558 16.2324 31.3755V17.7288C16.2324 17.1485 15.7656 16.6822 15.1848 16.6822H1.5247C0.943863 16.6822 0.477121 17.1485 0.477121 17.7288V31.3755C0.477121 31.9558 0.943863 32.4221 1.5247 32.4221Z" fill="#D5B084"/>
<path d="M31.0538 18.8694V19.0766C30.3899 19.3357 30.1306 19.6154 29.6846 21.3873L27.4132 30.2572H27.1331L24.509 20.9832L22.3101 30.2572H22.03L18.8562 19.0766H18.1094V18.8694H20.941V19.0766H20.2149L22.5279 28.4956L24.8305 18.859H25.2972L27.6725 28.5889L29.5083 21.4599C29.944 19.7191 29.5602 19.1491 28.4919 19.0662V18.859H31.0538V18.8694Z" fill="#D5B084"/>
<path d="M32.931 32.8987H16.2319V16.2159H32.931V32.8987ZM17.7463 32.4221H31.4063C31.9872 32.4221 32.4539 31.9558 32.4539 31.3755V17.7392C32.4539 17.1589 31.9872 16.6926 31.4063 16.6926H17.7463C17.1654 16.6926 16.6987 17.1589 16.6987 17.7392V31.3859C16.6987 31.9558 17.1654 32.4221 17.7463 32.4221Z" fill="#D5B084"/>
<path d="M45.2427 26.5683V30.2468H36.3538V30.0396H37.4117V19.0662H36.3538V18.859H44.973V22.5375H44.7759C44.527 20.3926 43.8839 19.201 41.5191 19.201H38.729V24.4441H41.239C42.6393 24.4441 43.0023 24.1229 43.272 22.9002H43.4172V26.2056H43.272C42.9919 24.9829 42.6393 24.6617 41.239 24.6617H38.729V29.9049H41.7887C44.1536 29.9049 44.807 28.734 45.0456 26.589H45.2427V26.5683Z" fill="#D5B084"/>
<path d="M49.1522 32.8987H32.4531V16.2159H49.1522V32.8987ZM33.9675 32.4221H47.6275C48.2084 32.4221 48.6751 31.9558 48.6751 31.3755V17.7288C48.6751 17.1485 48.2084 16.6822 47.6275 16.6822H33.9675C33.3866 16.6822 32.9199 17.1485 32.9199 17.7288V31.3755C32.9199 31.9558 33.397 32.4221 33.9675 32.4221Z" fill="#D5B084"/>
<path d="M60.6659 28.6909C60.6659 29.582 60.946 29.9136 61.4853 29.9136C62.0765 29.9136 62.284 29.3126 62.284 28.494H62.481C62.481 29.2712 62.3877 30.3281 60.9875 30.3281C59.8984 30.3281 59.2138 29.924 59.2138 28.494V26.8154C59.2138 25.2818 58.6122 24.8466 56.4963 24.8466H53.9552V30.0069H55.0131V30.2141H51.5696V30.0069H52.6275V19.0439H51.5696V18.8367H56.2474C58.9234 18.8367 60.6659 19.5516 60.6659 21.9142C60.6659 23.5099 59.5768 24.6601 57.3468 24.6601V24.7223C59.9088 24.7223 60.6659 25.2922 60.6659 27.2817V28.6909V28.6909ZM59.1931 21.852C59.1931 19.676 57.7617 19.1683 56.0814 19.1683H53.9552V24.6394H56.0918C57.8758 24.6394 59.1931 24.0384 59.1931 21.852Z" fill="#D5B084"/>
<path d="M65.3878 32.8987H48.6887V16.2159H65.3878V32.8987ZM50.203 32.4324H63.8631C64.444 32.4324 64.9107 31.9661 64.9107 31.3859V17.7392C64.9107 17.1589 64.444 16.6926 63.8631 16.6926H50.203C49.6222 16.6926 49.1555 17.1589 49.1555 17.7392V31.3859C49.1658 31.9661 49.6326 32.4324 50.203 32.4324Z" fill="#D5B084"/>
<path d="M2.42757 39.124V40H1.93837V39.5666H0V37.4272H0.489206V39.124H1.60607V37.4272H2.09528V39.124H2.42757Z" fill="#D5B084"/>
<path d="M5.34407 37.4272V37.8606H3.93183V38.2848H5.27946V38.709H3.93183V39.1332H5.34407V39.5666H3.44263V37.4272H5.34407Z" fill="#D5B084"/>
<path d="M6.9604 37.4272V38.2756H8.14188V37.4272H8.63109V39.5666H8.14188V38.7182H6.9604V39.5666H6.47119V37.4272H6.9604Z" fill="#D5B084"/>
<path d="M9.6001 37.8699V37.4272H11.76V37.8699H10.9293V39.5666H10.4401V37.8699H9.6001Z" fill="#D5B084"/>
<path d="M14.0842 37.4272C14.3334 37.4272 14.5364 37.4918 14.6841 37.6117C14.8318 37.7315 14.9057 37.8975 14.9057 38.1096V38.1465C14.9057 38.3586 14.8318 38.5246 14.6841 38.6445C14.5364 38.7643 14.3426 38.8289 14.0842 38.8289H13.2165V39.5666H12.7273V37.4272H14.0842ZM14.3149 38.3309C14.3703 38.2848 14.398 38.2295 14.398 38.1465V38.1096C14.398 38.0266 14.3703 37.9713 14.3149 37.9252C14.2595 37.8791 14.1765 37.8606 14.0657 37.8606H13.2073V38.3955H14.0657C14.1765 38.3955 14.2595 38.377 14.3149 38.3309Z" fill="#D5B084"/>
<path d="M17.899 39.4928V39.5666H17.4098L17.2159 39.124H16.1452L15.9514 39.5666H15.4622V39.4928L16.4129 37.4272H16.9575L17.899 39.4928ZM17.0313 38.6998L16.6806 37.9068L16.3298 38.6998H17.0313Z" fill="#D5B084"/>
<path d="M20.961 39.5666H20.4718V37.8699H19.5488L19.5303 38.6813C19.5211 38.9856 19.4565 39.207 19.3457 39.3453C19.2257 39.4928 19.0411 39.5666 18.8011 39.5666H18.6257V39.124H18.7088C18.8473 39.124 18.9396 39.0871 18.9949 39.0133C19.0503 38.9395 19.078 38.8197 19.078 38.6352L19.0965 37.4272H20.961V39.5666Z" fill="#D5B084"/>
<path d="M22.6323 37.4272V38.1649H23.463C23.7214 38.1649 23.9245 38.2203 24.063 38.3402C24.2014 38.46 24.2753 38.626 24.2753 38.8381V38.8842C24.2753 39.1055 24.2014 39.2715 24.063 39.3914C23.9245 39.5113 23.7214 39.5666 23.463 39.5666H22.1431V37.4272H22.6323ZM23.6938 39.0686C23.7491 39.0225 23.7768 38.9672 23.7768 38.8842V38.8473C23.7768 38.7736 23.7491 38.709 23.6938 38.6629C23.6384 38.6168 23.5553 38.5984 23.4538 38.5984H22.6323V39.1332H23.4538C23.5553 39.1332 23.6384 39.1147 23.6938 39.0686Z" fill="#D5B084"/>
<path d="M25.8361 37.4272V38.2756H27.0176V37.4272H27.5068V39.5666H27.0176V38.7182H25.8361V39.5666H25.3469V37.4272H25.8361Z" fill="#D5B084"/>
<path d="M29.1674 37.4272V38.8934L30.3581 37.4272H30.8473V39.5666H30.3581V38.1004L29.1674 39.5666H28.6782V37.4272H29.1674Z" fill="#D5B084"/>
<path d="M32.51 37.4273V38.8935L33.7007 37.4273H34.1899V39.5667H33.7007V38.1005L32.51 39.5667H32.0208V37.4273H32.51ZM32.5746 37.1138C32.4546 37.0216 32.3992 36.8925 32.3992 36.7265V36.6989H32.8146V36.7265C32.8146 36.7726 32.8423 36.8095 32.8884 36.8372C32.9438 36.8648 33.0176 36.8741 33.1099 36.8741C33.2022 36.8741 33.2668 36.8648 33.313 36.8372C33.3591 36.8095 33.3868 36.7726 33.3868 36.7265V36.6989H33.8207V36.7265C33.8207 37.0769 33.5807 37.2521 33.1099 37.2521C32.8699 37.2429 32.6946 37.206 32.5746 37.1138Z" fill="#D5B084"/>
<path d="M39.8206 39.124V40H39.3313V39.5666H37.6237V40H37.1345V39.124H37.4114C37.5222 38.9395 37.5868 38.709 37.596 38.4231L37.6145 37.4272H39.4975V39.124H39.8206ZM37.8914 39.124H38.9991V37.8699H38.0576L38.0483 38.4416C38.0391 38.709 37.9837 38.9395 37.8914 39.124Z" fill="#D5B084"/>
<path d="M41.305 37.4272H40.8162V39.5666H41.305V37.4272Z" fill="#D5B084"/>
<path d="M45.3212 39.5666H44.832V38.0912L44.149 39.5666H43.6505L42.9583 38.0912V39.5666H42.4783V37.4272H43.1521L43.8997 39.0133L44.6474 37.4272H45.3212V39.5666Z" fill="#D5B084"/>
<path d="M50.9514 39.124V40H50.4622V39.5666H48.7546V40H48.2654V39.124H48.5423C48.6531 38.9395 48.7177 38.709 48.7269 38.4231L48.7454 37.4272H50.6283V39.124H50.9514ZM49.0223 39.124H50.1299V37.8699H49.1884L49.1792 38.4416C49.1699 38.709 49.1238 38.9395 49.0223 39.124Z" fill="#D5B084"/>
<path d="M52.4545 37.4272V38.2756H53.636V37.4272H54.1252V39.5666H53.636V38.7182H52.4545V39.5666H51.9653V37.4272H52.4545Z" fill="#D5B084"/>
<path d="M55.7874 37.4272H55.2986V39.5666H55.7874V37.4272Z" fill="#D5B084"/>
<path d="M59.045 37.4272V39.5666H58.5558V37.8699H57.4389V39.5666H56.9497V37.4272H59.045Z" fill="#D5B084"/>
<path d="M61.5851 37.4272C61.8343 37.4272 62.0374 37.4918 62.1851 37.6117C62.3328 37.7315 62.4066 37.8975 62.4066 38.1096V38.1465C62.4066 38.3586 62.3328 38.5246 62.1851 38.6445C62.0374 38.7643 61.8436 38.8289 61.5851 38.8289H60.7175V39.5666H60.2283V37.4272H61.5851ZM61.8159 38.3309C61.8713 38.2848 61.899 38.2295 61.899 38.1465V38.1096C61.899 38.0266 61.8713 37.9713 61.8159 37.9252C61.7605 37.8791 61.6774 37.8606 61.5667 37.8606H60.7082V38.3955H61.5667C61.6774 38.3955 61.7605 38.377 61.8159 38.3309Z" fill="#D5B084"/>
<path d="M65.3872 39.4928V39.5666H64.898L64.7042 39.124H63.6335L63.4396 39.5666H62.9504V39.4928L63.9012 37.4272H64.4457L65.3872 39.4928ZM64.5196 38.6998L64.1688 37.9068L63.8181 38.6998H64.5196Z" fill="#D5B084"/>
</svg>
