<svg width="21" height="19" viewBox="0 0 21 19" fill="none" xmlns="http://www.w3.org/2000/svg">
<path d="M0.00976563 1.52588e-05L0.00976562 9.49561L9.43911 9.49561L9.43911 1.52596e-05L0.00976563 1.52588e-05Z" fill="#02996D"/>
<path d="M9.44302 9.50439H0.0136719V19H9.44302V9.50439Z" fill="#FDC60C"/>
<path d="M9.42969 9.50439V18.9861H18.859L9.42969 9.50439Z" fill="black"/>
<path d="M15.7244 9.50438C18.3283 9.50438 20.4391 7.37872 20.4391 4.75658C20.4391 2.13445 18.3283 0.00878906 15.7244 0.00878906C13.1206 0.00878906 11.0098 2.13445 11.0098 4.75658C11.0098 7.37872 13.1206 9.50438 15.7244 9.50438Z" fill="#EA4041"/>
<path d="M9.42934 9.50487C9.42934 4.25876 5.20951 0.00927734 0 0.00927734V9.50487H9.42934Z" fill="#0065FB"/>
</svg>
