<svg width="22" height="19" viewBox="0 0 22 19" fill="none" xmlns="http://www.w3.org/2000/svg">
<path fill-rule="evenodd" clip-rule="evenodd" d="M18.2466 18.0646C18.2615 18.2258 18.2508 18.389 18.2508 18.5752C18.5138 18.5752 18.8932 18.5752 19.1647 18.5752C19.1751 18.3503 19.1855 18.1244 19.198 17.8553C19.9297 17.9323 20.5719 17.9569 21.2517 18.2255C21.2559 18.2645 21.2599 18.3035 21.2642 18.3423C21.0934 18.3994 20.9263 18.4887 20.7515 18.5086C19.7032 18.6277 18.6556 18.7914 17.6039 18.8276C14.8814 18.9209 12.1566 19.0048 9.43316 18.9998C6.67144 18.9946 3.90642 18.9454 1.15841 18.61C0.85481 18.5729 0.555225 18.4991 0.25564 18.4342C0.185705 18.4191 0.123567 18.369 0 18.3052C0.340932 18.0342 0.706671 18.0351 1.04453 17.9888C1.66166 17.904 2.28375 17.8532 2.90513 17.8069C3.08847 17.7929 3.16998 17.718 3.23873 17.5581C3.83649 16.1663 4.13371 14.7085 4.19797 13.2009C4.25468 11.8636 4.16513 10.5358 3.90926 9.22051C3.89862 9.16569 3.88398 9.11135 3.87547 9.07615C3.54659 9.19239 3.23614 9.35187 2.90796 9.41023C1.34743 9.68713 0.0779679 8.1911 0.590901 6.68915C0.647369 6.524 0.637682 6.42123 0.529 6.28136C-0.133963 5.4308 -0.039929 4.22655 0.744947 3.4887C0.868041 3.37316 0.919547 3.26708 0.916003 3.09626C0.88647 1.74978 1.8932 0.813929 3.23165 0.918831C3.33182 0.926391 3.47098 0.864726 3.53879 0.787703C4.39856 -0.188311 5.68503 -0.265098 6.65609 0.600817C6.72484 0.66201 6.88266 0.690362 6.96725 0.655867C8.5481 0.0134596 10.0746 1.16124 9.91443 2.8718C9.90545 2.9682 9.96901 3.11067 10.0465 3.17045C11.2262 4.0829 11.221 5.68384 10.0248 6.59016C9.91537 6.67309 9.83434 6.73215 9.85985 6.90817C9.98295 7.76558 9.68242 8.46942 8.97433 8.95613C8.2738 9.43764 7.52129 9.44614 6.76666 9.0504C6.71775 9.02488 6.66601 9.00385 6.56347 8.95683C6.4718 9.50119 6.36477 10.0137 6.30263 10.5313C6.0236 12.8533 6.25892 15.1231 7.00836 17.3412C7.08585 17.5706 7.19406 17.6297 7.42041 17.615C7.7526 17.5931 7.94232 17.6094 8.30947 17.6094C8.30947 17.9338 8.31774 18.3047 8.31774 18.6409C8.59488 18.6409 9.06671 18.6407 9.34668 18.6407C9.34668 18.3803 9.32896 18.0897 9.32896 18.0897C9.32896 18.0897 9.40504 18.0878 9.35377 18.0788C9.41898 18.0949 9.38094 18.0651 9.38094 18.0651C9.38094 18.0651 9.41142 18.003 9.41851 18.0788C9.67249 18.0788 10.099 18.1006 10.3622 18.1006C10.3726 17.9609 10.3766 17.7537 10.3914 17.5553C12.7225 17.6039 14.8595 17.6408 17.1846 17.6892C17.2129 17.8241 17.1933 18.0394 17.216 18.1471C17.449 18.1471 17.9737 18.158 18.1485 18.158C18.1663 18.0566 18.1445 17.7377 18.1445 17.7377C18.1445 17.7377 18.1781 17.7426 18.235 17.7284" fill="#0065FB"/>
<path fill-rule="evenodd" clip-rule="evenodd" d="M19.4921 15.8648C19.3208 15.8797 19.1907 15.8632 19.0342 15.8766C19.0342 16.5389 19.0342 17.1898 19.0342 17.8407C19.0342 17.9555 19.0352 18.0706 19.0357 18.1854C19.0371 18.572 19.0534 18.476 18.6834 18.4893C18.4478 18.4975 18.3491 18.507 18.3533 18.2643C18.3666 17.479 18.3583 16.6932 18.3583 15.8835C18.2428 15.8835 18.1454 15.8835 18.0103 15.8835C18.0103 16.4808 18.0136 17.0728 18.007 17.6649C18.0058 17.7712 17.9798 17.961 17.938 17.9688C17.765 18.0018 17.5793 17.9931 17.4035 17.9655C17.3705 17.9605 17.3454 17.7994 17.3447 17.7098C17.3395 17.1066 17.3419 16.5037 17.3419 15.879C14.9551 15.879 12.5913 15.879 10.1908 15.879C10.1908 16.5814 10.1908 17.2758 10.1908 17.9617C10.1291 17.9813 10.1032 17.995 10.076 17.9974C9.51722 18.0524 9.51155 18.0437 9.51698 17.4922C9.52218 16.9578 9.51817 16.4234 9.51817 15.8743C9.40027 15.8743 9.31923 15.8743 9.19992 15.8743C9.19992 16.446 9.19921 17.0086 9.20015 17.5709C9.20039 17.8013 9.1907 18.0326 9.20937 18.2615C9.23417 18.5634 9.05981 18.5698 8.83205 18.5743C8.60145 18.5793 8.51049 18.5216 8.51616 18.2714C8.53223 17.5711 8.5223 16.8701 8.52136 16.1696C8.52136 16.076 8.5138 15.9825 8.50907 15.8752C8.40063 15.8641 8.36448 15.8674 8.19531 15.8646C8.19531 15.6581 8.21445 15.5428 8.24753 15.3937C8.6024 14.8805 9.00074 14.3737 9.00074 14.3737C9.00074 14.3737 9.56353 14.3792 10.0498 14.3792C12.9095 14.3792 15.7698 14.3823 18.6298 14.3737C18.7344 14.3733 18.8939 14.3737 18.8939 14.3737C18.8939 14.3737 19.017 14.5351 19.0624 14.6478C19.1819 14.9457 19.3374 15.2293 19.4631 15.5248C19.4983 15.6071 19.4822 15.7382 19.4921 15.8648Z" fill="#0065FB"/>
<path fill-rule="evenodd" clip-rule="evenodd" d="M18.8907 12.7632C18.8907 12.969 18.8907 13.0358 18.8907 13.2603C15.5948 13.2603 12.3053 13.2603 8.99805 13.2603C8.99805 13.0519 8.99805 12.986 8.99805 12.7632C12.294 12.7632 15.5844 12.7632 18.8907 12.7632Z" fill="#0065FB"/>
<path fill-rule="evenodd" clip-rule="evenodd" d="M18.8902 13.5701C18.8902 13.7894 18.8987 13.8855 18.8987 14.1201C18.798 14.1256 18.6976 14.1357 18.5977 14.1357C15.5007 14.1367 12.4078 14.1097 9.31031 14.1213C9.17848 14.1218 9.00718 14.1263 9.00718 14.1263C9.00718 14.1263 9.00009 14.0289 8.99868 13.8978C8.99726 13.7499 8.99868 13.5505 8.99868 13.5505C8.99868 13.5505 9.18769 13.55 9.30275 13.5505C12.3997 13.5616 15.4969 13.5566 18.5939 13.5566C18.6872 13.5569 18.7806 13.5649 18.8902 13.5701Z" fill="#0065FB"/>
<path fill-rule="evenodd" clip-rule="evenodd" d="M9.03253 11.8662C12.3256 11.8662 15.5948 11.8662 18.8862 11.8662C18.8862 12.0836 18.8843 12.2232 18.8843 12.4611C18.77 12.4611 18.6672 12.4611 18.5647 12.4611C15.5327 12.4609 12.5009 12.4611 9.46891 12.4607C9.21635 12.4607 9.02521 12.4611 9.02521 12.4611C9.02521 12.4611 9.01552 12.214 9.03253 11.8662Z" fill="#0065FB"/>
</svg>
