<svg width="20" height="20" viewBox="0 0 20 20" fill="none" xmlns="http://www.w3.org/2000/svg">
<path d="M19.6448 6.14373L17.9909 4.4899L19.2342 3.24713C19.3441 3.13732 19.4059 2.98853 19.4059 2.83291C19.4059 2.67728 19.3441 2.52849 19.2342 2.41865L17.5697 0.754113C17.35 0.534386 16.9609 0.534386 16.7411 0.754113L15.4984 1.99736L13.8443 0.343214C13.3867 -0.114405 12.6447 -0.114405 12.187 0.343214C11.7293 0.800832 11.7293 1.54283 12.187 2.00048L17.9875 7.801C18.4452 8.25862 19.1872 8.25862 19.6448 7.801C20.1024 7.34338 20.1024 6.60139 19.6448 6.14373Z" fill="#0065FB"/>
<path d="M7.80096 17.9992L2.00052 12.1987C1.54283 11.7411 0.80091 11.7411 0.343214 12.1987C-0.114405 12.6564 -0.114405 13.3984 0.343214 13.856L1.99732 15.5101L0.756496 16.7504C0.646613 16.8603 0.584816 17.009 0.584816 17.1647C0.584816 17.3203 0.646613 17.4691 0.756496 17.5789L2.42103 19.2429C2.53544 19.3574 2.68537 19.4146 2.83529 19.4146C2.98521 19.4146 3.13513 19.3574 3.24955 19.2429L4.48986 18.0026L6.14369 19.6565C6.60131 20.1141 7.34331 20.1141 7.80096 19.6565C8.25866 19.1988 8.25866 18.4568 7.80096 17.9992Z" fill="#0065FB"/>
<path d="M10.5299 6.97266L6.97266 10.542L9.4586 13.028L13.0159 9.45852L10.5299 6.97266Z" fill="#0065FB"/>
<path d="M17.9866 9.45823L10.5289 2.00044C10.0712 1.54282 9.32921 1.54282 8.87159 2.00044C8.4139 2.45814 8.4139 3.20005 8.87159 3.65775L16.3294 11.1155C16.787 11.5732 17.529 11.5732 17.9866 11.1155C18.4443 10.6579 18.4443 9.91592 17.9866 9.45823Z" fill="#0065FB"/>
<path d="M11.1146 16.342L3.65675 8.88423C3.19914 8.42661 2.45714 8.42661 1.99952 8.88423C1.54183 9.34192 1.54183 10.0839 1.99952 10.5415L9.45732 17.9993C9.91494 18.4569 10.6569 18.4569 11.1146 17.9993C11.5723 17.5417 11.5723 16.7997 11.1146 16.342Z" fill="#0065FB"/>
</svg>
