<svg width="40" height="50" viewBox="0 0 40 50" fill="none" xmlns="http://www.w3.org/2000/svg">
<path d="M39.4042 22.6554L39.4041 22.6554L39.4033 22.6648C38.2242 36.6137 27.1077 45.5942 22.3298 48.78C21.5954 49.2375 20.7882 49.5 20.0008 49.5C19.2136 49.5 18.4068 49.2378 17.6727 48.7806C12.4907 45.2922 0.5 35.5272 0.5 20.2075C0.5 17.5812 1.08411 14.945 2.06428 12.4953C3.03363 10.0726 4.58976 7.92821 6.45373 6.06478C8.31318 4.20587 10.5527 2.65265 12.9698 1.78275C15.419 0.901307 18.0552 0.415001 20.6823 0.512273C23.3077 0.609482 25.8435 1.29025 28.1928 2.36669C30.5149 3.4307 32.5607 5.08131 34.3263 7.04162C36.1802 9.18873 37.5463 11.6275 38.4254 14.3621L38.4271 14.3672C39.3075 17.0076 39.696 19.8353 39.4042 22.6554Z" fill="white" stroke="#DBDBDB"/>
<path d="M22.8535 30H18.1465C17.9038 30 17.707 29.8032 17.707 29.5605V25.293H13.4395C13.1968 25.293 13 25.0962 13 24.8535V20.1465C13 19.9038 13.1968 19.707 13.4395 19.707H17.707V15.4395C17.707 15.1968 17.9038 15 18.1465 15H22.8535C23.0962 15 23.293 15.1968 23.293 15.4395V19.707H27.5605C27.8032 19.707 28 19.9038 28 20.1465V24.8535C28 25.0962 27.8032 25.293 27.5605 25.293H23.293V29.5605C23.293 29.8032 23.0962 30 22.8535 30Z" fill="#0065FB"/>
</svg>
