<svg width="40" height="50" viewBox="0 0 40 50" fill="none" xmlns="http://www.w3.org/2000/svg">
<path d="M39.4042 22.6554L39.4041 22.6554L39.4033 22.6648C38.2242 36.6137 27.1077 45.5942 22.3298 48.78C21.5954 49.2375 20.7882 49.5 20.0008 49.5C19.2136 49.5 18.4068 49.2378 17.6727 48.7806C12.4907 45.2922 0.5 35.5272 0.5 20.2075C0.5 17.5812 1.08411 14.945 2.06428 12.4953C3.03363 10.0726 4.58976 7.92821 6.45373 6.06478C8.31318 4.20587 10.5527 2.65265 12.9698 1.78275C15.419 0.901307 18.0552 0.415001 20.6823 0.512273C23.3077 0.609482 25.8435 1.29025 28.1928 2.36669C30.5149 3.4307 32.5607 5.08131 34.3263 7.04162C36.1802 9.18873 37.5463 11.6275 38.4254 14.3621L38.4271 14.3672C39.3075 17.0076 39.696 19.8353 39.4042 22.6554Z" fill="white" stroke="#DBDBDB"/>
<path fill-rule="evenodd" clip-rule="evenodd" d="M28.2466 31.0646C28.2615 31.2258 28.2508 31.389 28.2508 31.5752C28.5138 31.5752 28.8932 31.5752 29.1647 31.5752C29.1751 31.3503 29.1855 31.1244 29.198 30.8553C29.9297 30.9323 30.5719 30.9569 31.2517 31.2255C31.2559 31.2645 31.2599 31.3035 31.2642 31.3423C31.0934 31.3994 30.9263 31.4887 30.7515 31.5086C29.7032 31.6277 28.6556 31.7914 27.6039 31.8276C24.8814 31.9209 22.1566 32.0048 19.4332 31.9998C16.6714 31.9946 13.9064 31.9454 11.1584 31.61C10.8548 31.5729 10.5552 31.4991 10.2556 31.4342C10.1857 31.4191 10.1236 31.369 10 31.3052C10.3409 31.0342 10.7067 31.0351 11.0445 30.9888C11.6617 30.904 12.2837 30.8532 12.9051 30.8069C13.0885 30.7929 13.17 30.718 13.2387 30.5581C13.8365 29.1663 14.1337 27.7085 14.198 26.2009C14.2547 24.8636 14.1651 23.5358 13.9093 22.2205C13.8986 22.1657 13.884 22.1114 13.8755 22.0761C13.5466 22.1924 13.2361 22.3519 12.908 22.4102C11.3474 22.6871 10.078 21.1911 10.5909 19.6892C10.6474 19.524 10.6377 19.4212 10.529 19.2814C9.86604 18.4308 9.96007 17.2266 10.7449 16.4887C10.868 16.3732 10.9195 16.2671 10.916 16.0963C10.8865 14.7498 11.8932 13.8139 13.2316 13.9188C13.3318 13.9264 13.471 13.8647 13.5388 13.7877C14.3986 12.8117 15.685 12.7349 16.6561 13.6008C16.7248 13.662 16.8827 13.6904 16.9672 13.6559C18.5481 13.0135 20.0746 14.1612 19.9144 15.8718C19.9055 15.9682 19.969 16.1107 20.0465 16.1704C21.2262 17.0829 21.221 18.6838 20.0248 19.5902C19.9154 19.6731 19.8343 19.7322 19.8599 19.9082C19.9829 20.7656 19.6824 21.4694 18.9743 21.9561C18.2738 22.4376 17.5213 22.4461 16.7667 22.0504C16.7178 22.0249 16.666 22.0039 16.5635 21.9568C16.4718 22.5012 16.3648 23.0137 16.3026 23.5313C16.0236 25.8533 16.2589 28.1231 17.0084 30.3412C17.0859 30.5706 17.1941 30.6297 17.4204 30.615C17.7526 30.5931 17.9423 30.6094 18.3095 30.6094C18.3095 30.9338 18.3177 31.3047 18.3177 31.6409C18.5949 31.6409 19.0667 31.6407 19.3467 31.6407C19.3467 31.3803 19.329 31.0897 19.329 31.0897C19.329 31.0897 19.405 31.0878 19.3538 31.0788C19.419 31.0949 19.3809 31.0651 19.3809 31.0651C19.3809 31.0651 19.4114 31.003 19.4185 31.0788C19.6725 31.0788 20.099 31.1006 20.3622 31.1006C20.3726 30.9609 20.3766 30.7537 20.3914 30.5553C22.7225 30.6039 24.8595 30.6408 27.1846 30.6892C27.2129 30.8241 27.1933 31.0394 27.216 31.1471C27.449 31.1471 27.9737 31.158 28.1485 31.158C28.1663 31.0566 28.1445 30.7377 28.1445 30.7377C28.1445 30.7377 28.1781 30.7426 28.235 30.7284" fill="#0065FB"/>
<path fill-rule="evenodd" clip-rule="evenodd" d="M29.4921 28.8649C29.3208 28.8798 29.1907 28.8633 29.0342 28.8768C29.0342 29.539 29.0342 30.1899 29.0342 30.8408C29.0342 30.9557 29.0352 31.0707 29.0357 31.1855C29.0371 31.5721 29.0534 31.4762 28.6834 31.4894C28.4478 31.4977 28.3491 31.5071 28.3533 31.2645C28.3666 30.4791 28.3583 29.6933 28.3583 28.8836C28.2428 28.8836 28.1454 28.8836 28.0103 28.8836C28.0103 29.4809 28.0136 30.073 28.007 30.6651C28.0058 30.7714 27.9798 30.9611 27.938 30.9689C27.765 31.002 27.5793 30.9932 27.4035 30.9656C27.3705 30.9606 27.3454 30.7995 27.3447 30.7099C27.3395 30.1068 27.3419 29.5038 27.3419 28.8791C24.9551 28.8791 22.5913 28.8791 20.1908 28.8791C20.1908 29.5815 20.1908 30.2759 20.1908 30.9618C20.1291 30.9814 20.1032 30.9951 20.076 30.9975C19.5172 31.0525 19.5116 31.0438 19.517 30.4923C19.5222 29.9579 19.5182 29.4235 19.5182 28.8744C19.4003 28.8744 19.3192 28.8744 19.1999 28.8744C19.1999 29.4462 19.1992 30.0087 19.2002 30.571C19.2004 30.8014 19.1907 31.0327 19.2094 31.2616C19.2342 31.5636 19.0598 31.5699 18.832 31.5744C18.6015 31.5794 18.5105 31.5218 18.5162 31.2715C18.5322 30.5713 18.5223 29.8703 18.5214 29.1697C18.5214 29.0762 18.5138 28.9826 18.5091 28.8753C18.4006 28.8642 18.3645 28.8675 18.1953 28.8647C18.1953 28.6582 18.2145 28.5429 18.2475 28.3938C18.6024 27.8807 19.0007 27.3739 19.0007 27.3739C19.0007 27.3739 19.5635 27.3793 20.0498 27.3793C22.9095 27.3793 25.7698 27.3824 28.6298 27.3739C28.7344 27.3734 28.8939 27.3739 28.8939 27.3739C28.8939 27.3739 29.017 27.5352 29.0624 27.6479C29.1819 27.9459 29.3374 28.2294 29.4631 28.525C29.4983 28.6072 29.4822 28.7383 29.4921 28.8649Z" fill="#0065FB"/>
<path fill-rule="evenodd" clip-rule="evenodd" d="M28.8927 25.7632C28.8927 25.969 28.8927 26.0358 28.8927 26.2603C25.5968 26.2603 22.3073 26.2603 19 26.2603C19 26.0519 19 25.986 19 25.7632C22.2959 25.7632 25.5864 25.7632 28.8927 25.7632Z" fill="#0065FB"/>
<path fill-rule="evenodd" clip-rule="evenodd" d="M28.8921 26.57C28.8921 26.7892 28.9006 26.8854 28.9006 27.12C28.8 27.1255 28.6996 27.1356 28.5996 27.1356C25.5027 27.1366 22.4097 27.1096 19.3123 27.1212C19.1804 27.1217 19.0091 27.1262 19.0091 27.1262C19.0091 27.1262 19.002 27.0288 19.0006 26.8977C18.9992 26.7498 19.0006 26.5504 19.0006 26.5504C19.0006 26.5504 19.1896 26.5499 19.3047 26.5504C22.4017 26.5615 25.4989 26.5565 28.5959 26.5565C28.6892 26.5568 28.7825 26.5648 28.8921 26.57Z" fill="#0065FB"/>
<path fill-rule="evenodd" clip-rule="evenodd" d="M19.0335 24.866C22.3266 24.866 25.5958 24.866 28.8872 24.866C28.8872 25.0833 28.8853 25.223 28.8853 25.4609C28.771 25.4609 28.6682 25.4609 28.5657 25.4609C25.5337 25.4607 22.5019 25.4609 19.4699 25.4604C19.2173 25.4604 19.0262 25.4609 19.0262 25.4609C19.0262 25.4609 19.0165 25.2138 19.0335 24.866Z" fill="#0065FB"/>
</svg>
