<svg width="40" height="50" viewBox="0 0 40 50" fill="none" xmlns="http://www.w3.org/2000/svg">
<path d="M39.4042 22.6554L39.4041 22.6554L39.4033 22.6648C38.2242 36.6137 27.1077 45.5942 22.3298 48.78C21.5954 49.2375 20.7882 49.5 20.0008 49.5C19.2136 49.5 18.4068 49.2378 17.6727 48.7806C12.4907 45.2922 0.5 35.5272 0.5 20.2075C0.5 17.5812 1.08411 14.945 2.06428 12.4953C3.03363 10.0726 4.58976 7.92821 6.45373 6.06478C8.31318 4.20587 10.5527 2.65265 12.9698 1.78275C15.419 0.901307 18.0552 0.415001 20.6823 0.512273C23.3077 0.609482 25.8435 1.29025 28.1928 2.36669C30.5149 3.4307 32.5607 5.08131 34.3263 7.04162C36.1802 9.18873 37.5463 11.6275 38.4254 14.3621L38.4271 14.3672C39.3075 17.0076 39.696 19.8353 39.4042 22.6554Z" fill="white" stroke="#DBDBDB"/>
<path d="M20 12C14.486 12 10 16.486 10 22C10 27.514 14.486 32 20 32C25.514 32 30 27.514 30 22C30 16.486 25.514 12 20 12ZM20 30.518C15.304 30.518 11.482 26.6973 11.482 22C11.482 17.3027 15.304 13.482 20 13.482C24.696 13.482 28.518 17.3027 28.518 22C28.518 26.6973 24.696 30.518 20 30.518Z" fill="#0065FB"/>
<path d="M18.5352 19.608C18.5352 20.078 18.8532 20.47 19.4872 20.7853V18.616C18.8525 18.73 18.5352 19.0606 18.5352 19.608Z" fill="#0065FB"/>
<path d="M19.9987 14.3333C15.772 14.3333 12.332 17.7726 12.332 22C12.332 26.2273 15.772 29.6666 19.9987 29.6666C24.2254 29.6666 27.6654 26.2273 27.6654 22C27.6654 17.7726 24.2254 14.3333 19.9987 14.3333ZM22.558 25.9286C22.074 26.3913 21.3834 26.6733 20.4847 26.774V28.26H19.4854V26.816C18.5587 26.8106 17.6967 26.6013 16.898 26.186V24.29C17.1627 24.5046 17.5574 24.704 18.082 24.886C18.6067 25.0686 19.074 25.1733 19.4847 25.2013V22.71C18.4167 22.3133 17.688 21.884 17.298 21.42C16.908 20.9566 16.7127 20.392 16.7127 19.726C16.7127 19.0093 16.966 18.3993 17.4727 17.8953C17.9794 17.3913 18.65 17.098 19.4854 17.016V15.742H20.4847V16.9873C21.4467 17.0326 22.1654 17.188 22.64 17.4526V19.3C22.0007 18.912 21.2827 18.6746 20.4847 18.5886V21.1826C21.4834 21.5433 22.1994 21.9546 22.634 22.418C23.0667 22.8813 23.2847 23.4413 23.2847 24.0986C23.284 24.8546 23.0414 25.4653 22.558 25.9286Z" fill="#0065FB"/>
<path d="M20.4883 23.0973V25.1706C21.1409 25.0713 21.4683 24.744 21.4683 24.192C21.4669 23.7466 21.1403 23.3813 20.4883 23.0973Z" fill="#0065FB"/>
</svg>
