<svg width="40" height="50" viewBox="0 0 40 50" fill="none" xmlns="http://www.w3.org/2000/svg">
<path d="M39.9191 22.6855C38.6851 36.9174 27.4298 45.9886 22.6275 49.1941C21.8526 49.7194 20.9396 50 20.0054 50C19.0712 50 18.1582 49.7194 17.3833 49.1941C12.1558 45.6613 1.00165e-05 35.7678 1.00165e-05 20.1597L39.9191 22.6855ZM39.9191 22.6855C40.1696 19.8086 39.837 16.9105 38.9412 14.1669M39.9191 22.6855L38.9412 14.1669M38.9412 14.1669C38.0455 11.4233 36.6054 8.89148 34.7082 6.72493L38.9412 14.1669ZM34.3299 7.05185L34.3321 7.05433C36.1847 9.16998 37.5911 11.6425 38.4659 14.3221C39.3408 17.0017 39.6657 19.8323 39.4209 22.6421L39.4209 22.6423C38.2078 36.6342 27.1257 45.5904 22.3499 48.7783L22.3469 48.7803C21.6547 49.2495 20.8394 49.5 20.0054 49.5C19.1714 49.5 18.3561 49.2495 17.6639 48.7803L17.6633 48.7799C12.458 45.2621 0.50001 35.4992 0.50001 20.1597L0.50001 20.1592C0.497388 17.5215 1.02261 14.9104 2.04426 12.4816C3.0659 10.0528 4.563 7.8562 6.44608 6.02274C8.32916 4.18928 10.5596 2.7565 13.0044 1.80969C15.4492 0.862883 18.0582 0.421388 20.676 0.511464L20.6764 0.511477C23.2763 0.598927 25.8304 1.22473 28.1795 2.34994C30.5286 3.47515 32.6223 5.07569 34.3299 7.05185Z" fill="white" stroke="#DBDBDB"/>
<path d="M28.6875 19.5L24.75 22C24.75 21.2412 24.3878 20.57 23.8273 20.1112C25.1615 19.3456 26.0625 17.9662 26.0625 16.375C26.0625 13.9587 24.0058 12 21.4688 12C18.9317 12 16.875 13.9588 16.875 16.375C16.875 17.6006 17.4072 18.7056 18.2603 19.5H15.8532C16.4819 18.8356 16.875 17.965 16.875 17C16.875 14.9288 15.1123 13.25 12.9375 13.25C10.7627 13.25 9 14.9288 9 17C9 18.13 9.53615 19.1312 10.3663 19.8188C9.55585 20.2444 9 21.0562 9 22V27C9 28.3806 10.1753 29.5 11.625 29.5H22.125C23.5747 29.5 24.75 28.3806 24.75 27L28.6875 29.5C29.4127 29.5 30 28.9406 30 28.25V20.75C30 20.0594 29.4127 19.5 28.6875 19.5ZM12.9375 19.5C11.4878 19.5 10.3125 18.3806 10.3125 17C10.3125 15.6194 11.4878 14.5 12.9375 14.5C14.3872 14.5 15.5625 15.6194 15.5625 17C15.5625 18.3806 14.3872 19.5 12.9375 19.5ZM21.4688 19.5069C19.6523 19.5069 18.1803 18.1043 18.1803 16.375C18.1803 14.645 19.6529 13.2431 21.4688 13.2431C23.2846 13.2431 24.7572 14.645 24.7572 16.375C24.7572 18.105 23.2852 19.5069 21.4688 19.5069Z" fill="#0065FB"/>
</svg>
