<svg width="40" height="50" viewBox="0 0 40 50" fill="none" xmlns="http://www.w3.org/2000/svg">
<path d="M39.4042 22.6554L39.4041 22.6554L39.4033 22.6648C38.2242 36.6137 27.1077 45.5942 22.3298 48.78C21.5954 49.2375 20.7882 49.5 20.0008 49.5C19.2136 49.5 18.4068 49.2378 17.6727 48.7806C12.4907 45.2922 0.5 35.5272 0.5 20.2075C0.5 17.5812 1.08411 14.945 2.06428 12.4953C3.03363 10.0726 4.58976 7.92821 6.45373 6.06478C8.31318 4.20587 10.5527 2.65265 12.9698 1.78275C15.419 0.901307 18.0552 0.415001 20.6823 0.512273C23.3077 0.609482 25.8435 1.29025 28.1928 2.36669C30.5149 3.4307 32.5607 5.08131 34.3263 7.04162C36.1802 9.18873 37.5463 11.6275 38.4254 14.3621L38.4271 14.3672C39.3075 17.0076 39.696 19.8353 39.4042 22.6554Z" fill="white" stroke="#DBDBDB"/>
<path d="M14.3849 23.585C14.1706 23.3898 14.1354 23.0659 14.3017 22.8289C15.187 21.5699 17.0993 20.7978 18.3656 20.4639V19.9076C17.0655 18.9534 16.2988 17.0978 16.2988 15.7445C16.2988 13.6796 17.9784 12 20.0429 12C22.1073 12 23.7873 13.6796 23.7873 15.7445C23.7873 17.0978 23.0202 18.9537 21.7201 19.9076V20.4639C22.9868 20.7978 24.8991 21.5699 25.7843 22.8289C25.9511 23.0659 25.9155 23.3898 25.7011 23.585C25.0467 24.1811 22.9124 26.3292 22.9124 28.9504C22.9124 29.1777 22.9213 29.4024 22.9366 29.6236C22.9481 29.7827 22.8925 29.9395 22.784 30.056C22.6751 30.173 22.5229 30.2393 22.3631 30.2393H17.7226C17.5628 30.2393 17.4106 30.173 17.3017 30.056C17.1928 29.9391 17.1376 29.7827 17.1491 29.6236C17.1648 29.402 17.1733 29.1777 17.1733 28.9504C17.1736 26.3288 15.039 24.1807 14.3849 23.585ZM25.5298 30.7795H14.5555C14.2377 30.7795 13.9805 31.0367 13.9805 31.3545V32.4249C13.9805 32.7428 14.2377 33 14.5555 33H25.5298C25.8476 33 26.1048 32.7428 26.1048 32.4249V31.3545C26.1048 31.0367 25.8476 30.7795 25.5298 30.7795Z" fill="#0065FB"/>
</svg>
