<svg width="60" height="81" viewBox="0 0 60 81" fill="none" xmlns="http://www.w3.org/2000/svg">
<path fill-rule="evenodd" clip-rule="evenodd" d="M29.8592 81C40.2817 69.0632 60 46.6105 60 30.1263C60 13.6421 46.4789 0 29.8592 0C13.5211 0 0 13.6421 0 30.1263C0 46.6105 19.7183 69.0632 29.8592 81Z" fill="#D9B48F"/>
<circle cx="30" cy="30" r="25" fill="white"/>
<path d="M36.0121 32.7518L35.4521 29.9348C35.1908 28.5842 33.9428 27.6015 32.4867 27.6015H30.588C30.6467 26.1098 29.98 23.822 27.052 23.0207C26.8866 22.9753 26.716 23.0056 26.5827 23.1013C26.4493 23.1971 26.3693 23.3432 26.3693 23.5045V24.4821L23.5373 25.8226C22.9933 26.0796 22.6413 26.6188 22.6413 27.1933C22.6413 27.793 22.9933 28.3221 23.5586 28.5842L24.8546 29.1687L24.2146 32.8173L24.1293 32.787C23.3026 32.5048 22.3906 32.913 22.0919 33.6941C21.7986 34.4753 22.2306 35.337 23.0573 35.6142L24.4973 36.103C26.2626 36.6976 28.1134 37 30.0014 37C31.8841 37 33.7348 36.6976 35.5001 36.103L36.9455 35.6142C37.3455 35.4831 37.6655 35.2059 37.8468 34.8431C38.0281 34.4803 38.0495 34.0721 37.9055 33.6941C37.6281 32.9584 36.7961 32.5603 36.0121 32.7518ZM27.9213 33.6437C28.1827 32.7568 29.036 32.137 30.0067 32.137C30.4387 32.137 30.8547 32.2579 31.2121 32.4847C31.5694 32.7165 31.8467 33.039 32.0067 33.417L32.1774 33.8201C30.7534 34.0418 29.2974 34.0418 27.868 33.8252L27.9213 33.6437ZM36.8815 34.4148C36.8228 34.5307 36.7161 34.6214 36.5881 34.6668L35.1428 35.1556C31.8414 36.2693 28.156 36.2693 24.86 35.1556L23.4146 34.6668C23.1426 34.576 23.0039 34.2938 23.0999 34.0368C23.1746 33.8302 23.3773 33.7042 23.5906 33.7042C23.6493 33.7042 23.7133 33.7143 23.7666 33.7345L25.212 34.2182C28.2893 35.2564 31.7134 35.2564 34.7908 34.2182L36.2308 33.7345C36.5081 33.6437 36.8068 33.7748 36.9028 34.0368C36.9508 34.1578 36.9455 34.2938 36.8815 34.4148Z" fill="#2D2D2D"/>
</svg>
