<svg width="40" height="50" viewBox="0 0 40 50" fill="none" xmlns="http://www.w3.org/2000/svg">
<path d="M39.4042 22.6554L39.4041 22.6554L39.4033 22.6648C38.2242 36.6137 27.1077 45.5942 22.3298 48.78C21.5954 49.2375 20.7882 49.5 20.0008 49.5C19.2136 49.5 18.4068 49.2378 17.6727 48.7806C12.4907 45.2922 0.5 35.5272 0.5 20.2075C0.5 17.5812 1.08411 14.945 2.06428 12.4953C3.03363 10.0726 4.58976 7.92821 6.45373 6.06478C8.31318 4.20587 10.5527 2.65265 12.9698 1.78275C15.419 0.901307 18.0552 0.415001 20.6823 0.512273C23.3077 0.609482 25.8435 1.29025 28.1928 2.36669C30.5149 3.4307 32.5607 5.08131 34.3263 7.04162C36.1802 9.18873 37.5463 11.6275 38.4254 14.3621L38.4271 14.3672C39.3075 17.0076 39.696 19.8353 39.4042 22.6554Z" fill="white" stroke="#DBDBDB"/>
<path d="M17.3672 25.8331H22.9798V28.6394H17.3672V25.8331Z" fill="#0065FB"/>
<path d="M20.1739 15.1693C16.7696 15.1693 14 17.9389 14 21.3431V29.7621C14 31 15.0071 32.0071 16.245 32.0071H24.1027C25.3406 32.0071 26.3478 31 26.3478 29.7621V21.3431C26.3478 17.9389 23.5782 15.1693 20.1739 15.1693ZM16.8063 20.2206H23.5415V21.3431H22.4189V22.4657H21.2964V21.3431H16.8063V20.2206ZM24.1027 29.7621H16.245V24.7107H24.1027V29.7621Z" fill="#0065FB"/>
<path d="M25.9366 14.0922L22.7511 13L22.2852 14.359C23.4109 14.7002 24.4222 15.3066 25.2464 16.1053L25.9366 14.0922Z" fill="#0065FB"/>
<path d="M18.0617 14.359L17.5957 13L14.4102 14.0922L15.1004 16.1053C15.9246 15.3066 16.9359 14.7002 18.0617 14.359Z" fill="#0065FB"/>
</svg>
