<svg width="60" height="81" viewBox="0 0 60 81" fill="none" xmlns="http://www.w3.org/2000/svg">
<path fill-rule="evenodd" clip-rule="evenodd" d="M29.8592 81C40.2817 69.0632 60 46.6105 60 30.1263C60 13.6421 46.4789 0 29.8592 0C13.5211 0 0 13.6421 0 30.1263C0 46.6105 19.7183 69.0632 29.8592 81Z" fill="#D9B48F"/>
<circle cx="30" cy="30" r="25" fill="white"/>
<path d="M25.8327 26.3525H26.4315V24.1668C26.4315 22.9716 27.2894 22 28.3442 22H31.5917C32.6463 22 33.5043 22.9716 33.5043 24.1668V26.3525H35.2385L35.9989 34.3834L36 34.4152C36 36.3919 34.5805 38 32.8361 38H27.1639C25.4195 38 24 36.3919 24 34.4152L24.7615 26.3525H25.8327ZM27.2596 26.3525H32.6762V24.1668C32.6762 23.4889 32.1897 22.9381 31.5917 22.9381H28.3442C27.7461 22.9381 27.2596 23.489 27.2596 24.1668V26.3525Z" fill="#2D2D2D"/>
</svg>
