<svg width="40" height="50" viewBox="0 0 40 50" fill="none" xmlns="http://www.w3.org/2000/svg">
<path d="M39.4042 22.6554L39.4041 22.6554L39.4033 22.6648C38.2242 36.6137 27.1077 45.5942 22.3298 48.78C21.5954 49.2375 20.7882 49.5 20.0008 49.5C19.2136 49.5 18.4068 49.2378 17.6727 48.7806C12.4907 45.2922 0.5 35.5272 0.5 20.2075C0.5 17.5812 1.08411 14.945 2.06428 12.4953C3.03363 10.0726 4.58976 7.92821 6.45373 6.06478C8.31318 4.20587 10.5527 2.65265 12.9698 1.78275C15.419 0.901307 18.0552 0.415001 20.6823 0.512273C23.3077 0.609482 25.8435 1.29025 28.1928 2.36669C30.5149 3.4307 32.5607 5.08131 34.3263 7.04162C36.1802 9.18873 37.5463 11.6275 38.4254 14.3621L38.4271 14.3672C39.3075 17.0076 39.696 19.8353 39.4042 22.6554Z" fill="white" stroke="#DBDBDB"/>
<path d="M15.8696 19.8771C16.8187 19.2443 18.0369 19.2081 19.0165 19.768L21.0756 15.6338H11.7723C11.1515 15.6338 10.7851 16.3322 11.1373 16.843L14.0612 21.0828C17.1088 19.051 14.549 20.7573 15.8696 19.8771Z" fill="#0065FB"/>
<path d="M25.7587 33.7859H20.7707V28.5753L25.0621 22.3528C22.7673 20.8229 23.4456 21.2751 23.274 21.1607C22.7841 20.834 22.1512 20.834 21.6615 21.1606C21.1263 21.5174 20.4798 21.7025 19.7986 21.657L18.9648 23.3311C18.83 23.602 18.5572 23.7586 18.2738 23.7586C17.7069 23.7586 17.3272 23.1589 17.584 22.6433L18.3259 21.1536C17.8447 20.8392 17.2162 20.8332 16.7248 21.1607C16.5266 21.2928 17.3184 20.765 14.9367 22.3528L19.2281 28.5753V33.7859H14.2401C13.8141 33.7859 13.4688 34.1313 13.4688 34.5573C13.4688 34.9832 13.8141 35.3286 14.2401 35.3286H25.7587C26.1847 35.3286 26.5301 34.9832 26.5301 34.5573C26.5301 34.1313 26.1847 33.7859 25.7587 33.7859Z" fill="#0065FB"/>
<path d="M28.2265 15.6337H24.523L27.2714 10.1155C27.4613 9.73413 27.3062 9.27107 26.9249 9.08117C26.5435 8.89116 26.0804 9.04641 25.8906 9.4277C23.0494 15.1323 23.478 14.2685 20.6367 19.9733C20.6946 19.9449 20.751 19.9133 20.8052 19.8771C21.8148 19.2038 23.1197 19.2038 24.1293 19.8772C25.4855 20.7811 22.8969 19.0556 25.9376 21.0827L28.8615 16.843C29.2139 16.3318 28.8469 15.6337 28.2265 15.6337Z" fill="#0065FB"/>
</svg>
