<svg width="60" height="81" viewBox="0 0 60 81" fill="none" xmlns="http://www.w3.org/2000/svg">
<path fill-rule="evenodd" clip-rule="evenodd" d="M29.8592 81C40.2817 69.0632 60 46.6105 60 30.1263C60 13.6421 46.4789 0 29.8592 0C13.5211 0 0 13.6421 0 30.1263C0 46.6105 19.7183 69.0632 29.8592 81Z" fill="#D9B48F"/>
<circle cx="30" cy="30" r="25" fill="white"/>
<path d="M22 36L23.5533 36.3867C24.2923 36.5728 25.0513 36.6668 25.8133 36.6667H34.1867C34.9487 36.6668 35.7077 36.5728 36.4467 36.3867L38 36V35.3333H22V36ZM36.6667 25.3333H35.3333V24H24.6667V30C24.6667 31.0609 25.0881 32.0783 25.8382 32.8284C26.5884 33.5786 27.6058 34 28.6667 34H31.3333C32.2745 33.9943 33.1835 33.657 33.9005 33.0473C34.6174 32.4376 35.0965 31.5947 35.2533 30.6667H35.3333C36.0406 30.6667 36.7189 30.3857 37.219 29.8856C37.719 29.3855 38 28.7072 38 28V26.6667C38 26.313 37.8595 25.9739 37.6095 25.7239C37.3594 25.4738 37.0203 25.3333 36.6667 25.3333ZM36.6667 28C36.6667 28.3536 36.5262 28.6928 36.2761 28.9428C36.0261 29.1929 35.687 29.3333 35.3333 29.3333V26.6667H36.6667V28Z" fill="#2D2D2D"/>
</svg>
