<svg width="60" height="81" viewBox="0 0 60 81" fill="none" xmlns="http://www.w3.org/2000/svg">
<path fill-rule="evenodd" clip-rule="evenodd" d="M29.8592 81C40.2817 69.0632 60 46.6105 60 30.1263C60 13.6421 46.4789 0 29.8592 0C13.5211 0 0 13.6421 0 30.1263C0 46.6105 19.7183 69.0632 29.8592 81Z" fill="#D9B48F"/>
<circle cx="30" cy="30" r="25" fill="white"/>
<path d="M30 22C25.5814 22 22 25.5817 22 30C22 34.4183 25.5814 38 30 38C34.4186 38 38 34.4179 38 30C38 25.5821 34.4183 22 30 22ZM30.4843 33.5636V34.4897C30.4843 34.6341 30.3718 34.7393 30.227 34.7393H29.6097C29.4649 34.7393 29.3483 34.6341 29.3483 34.4897V33.6451C28.7801 33.6193 28.2071 33.4982 27.7733 33.3331C27.5383 33.244 27.4074 32.9923 27.4697 32.7486L27.5703 32.3566C27.6055 32.2191 27.6974 32.1042 27.8231 32.0398C27.9487 31.9743 28.0963 31.9677 28.2283 32.0182C28.6415 32.178 29.1296 32.2943 29.6508 32.2943C30.3144 32.2943 30.7687 32.038 30.7687 31.5722C30.7687 31.1297 30.3962 30.8502 29.5342 30.5588C28.2882 30.1396 27.4349 29.5575 27.4349 28.4278C27.4349 27.4032 28.1601 26.5997 29.3998 26.3549V25.5103C29.3998 25.3659 29.5234 25.2363 29.6682 25.2363H30.2855C30.4303 25.2363 30.5365 25.3659 30.5365 25.5103V26.2731C31.0786 26.2964 31.4699 26.3769 31.7971 26.4834C32.0447 26.5642 32.1909 26.8235 32.1258 27.0763L32.0373 27.4272C32.0029 27.5609 31.9144 27.6744 31.7933 27.7398C31.6721 27.8053 31.529 27.8171 31.3981 27.7722C31.1008 27.6702 30.713 27.5776 30.2214 27.5776C29.4646 27.5776 29.2198 27.9038 29.2198 28.23C29.2198 28.6144 29.6275 28.8588 30.6173 29.2316C32.0029 29.7208 32.5596 30.3614 32.5596 31.4089C32.5592 32.4454 31.8271 33.331 30.4843 33.5636Z" fill="#2D2D2D"/>
</svg>
