<svg width="60" height="81" viewBox="0 0 60 81" fill="none" xmlns="http://www.w3.org/2000/svg">
<path fill-rule="evenodd" clip-rule="evenodd" d="M29.8592 81C40.2817 69.0632 60 46.6105 60 30.1263C60 13.6421 46.4789 0 29.8592 0C13.5211 0 0 13.6421 0 30.1263C0 46.6105 19.7183 69.0632 29.8592 81Z" fill="#D9B48F"/>
<circle cx="30" cy="30" r="25" fill="white"/>
<path d="M32.1966 37H27.8034C27.5769 37 27.3932 36.8164 27.3932 36.5898V32.6068H23.4102C23.1836 32.6068 23 32.4231 23 32.1966V27.8034C23 27.5769 23.1836 27.3932 23.4102 27.3932H27.3932V23.4102C27.3932 23.1836 27.5769 23 27.8034 23H32.1966C32.4231 23 32.6068 23.1836 32.6068 23.4102V27.3932H36.5898C36.8164 27.3932 37 27.5769 37 27.8034V32.1966C37 32.4231 36.8164 32.6068 36.5898 32.6068H32.6068V36.5898C32.6068 36.8164 32.4231 37 32.1966 37Z" fill="#2D2D2D"/>
</svg>
