<svg width="40" height="50" viewBox="0 0 40 50" fill="none" xmlns="http://www.w3.org/2000/svg">
<path d="M39.4042 22.6554L39.4041 22.6554L39.4033 22.6648C38.2242 36.6137 27.1077 45.5942 22.3298 48.78C21.5954 49.2375 20.7882 49.5 20.0008 49.5C19.2136 49.5 18.4068 49.2378 17.6727 48.7806C12.4907 45.2922 0.5 35.5272 0.5 20.2075C0.5 17.5812 1.08411 14.945 2.06428 12.4953C3.03363 10.0726 4.58976 7.92821 6.45373 6.06478C8.31318 4.20587 10.5527 2.65265 12.9698 1.78275C15.419 0.901307 18.0552 0.415001 20.6823 0.512273C23.3077 0.609482 25.8435 1.29025 28.1928 2.36669C30.5149 3.4307 32.5607 5.08131 34.3263 7.04162C36.1802 9.18873 37.5463 11.6275 38.4254 14.3621L38.4271 14.3672C39.3075 17.0076 39.696 19.8353 39.4042 22.6554Z" fill="white" stroke="#DBDBDB"/>
<path d="M28.0933 17.4569C28.0872 17.3755 28.019 17.3125 27.9375 17.3125H25.125V16.5312C25.125 14.0327 23.0922 12 20.5937 12C18.0953 12 16.0625 14.0327 16.0625 16.5312V17.3125H13.25C13.1684 17.3125 13.1003 17.3755 13.0942 17.4569L12.0004 31.8319C11.9972 31.8752 12.012 31.918 12.0417 31.9498C12.0712 31.9819 12.1128 32 12.1562 32H29.0312C29.0747 32 29.1162 31.9819 29.1458 31.95C29.1753 31.9181 29.1903 31.8753 29.187 31.832L28.0933 17.4569ZM17.3125 16.5312C17.3125 14.722 18.7844 13.25 20.5937 13.25C22.4031 13.25 23.875 14.722 23.875 16.5312V17.3125H17.3125V16.5312ZM16.6875 21.6875C15.8258 21.6875 15.125 20.9866 15.125 20.125C15.125 19.5014 15.4375 18.9395 16.0625 18.693V20.125C16.0625 20.4697 16.3429 20.75 16.6875 20.75C17.032 20.75 17.3125 20.4697 17.3125 20.125V18.6939C17.9375 18.9405 18.25 19.5066 18.25 20.125C18.25 20.9866 17.5492 21.6875 16.6875 21.6875ZM24.5 21.6875C23.6383 21.6875 22.9375 20.9866 22.9375 20.125C22.9375 19.5014 23.25 18.9395 23.875 18.693V20.125C23.875 20.4697 24.1554 20.75 24.5 20.75C24.8445 20.75 25.125 20.4697 25.125 20.125V18.6939C25.75 18.9405 26.0625 19.5066 26.0625 20.125C26.0625 20.9866 25.3617 21.6875 24.5 21.6875Z" fill="#0065FB"/>
</svg>
