<svg width="40" height="50" viewBox="0 0 40 50" fill="none" xmlns="http://www.w3.org/2000/svg">
<path d="M39.4042 22.6554L39.4041 22.6554L39.4033 22.6648C38.2242 36.6137 27.1077 45.5942 22.3298 48.78C21.5954 49.2375 20.7882 49.5 20.0008 49.5C19.2136 49.5 18.4068 49.2378 17.6727 48.7806C12.4907 45.2922 0.5 35.5272 0.5 20.2075C0.5 17.5812 1.08411 14.945 2.06428 12.4953C3.03363 10.0726 4.58976 7.92821 6.45373 6.06478C8.31318 4.20587 10.5527 2.65265 12.9698 1.78275C15.419 0.901307 18.0552 0.415001 20.6823 0.512273C23.3077 0.609482 25.8435 1.29025 28.1928 2.36669C30.5149 3.4307 32.5607 5.08131 34.3263 7.04162C36.1802 9.18873 37.5463 11.6275 38.4254 14.3621L38.4271 14.3672C39.3075 17.0076 39.696 19.8353 39.4042 22.6554Z" fill="white" stroke="#DBDBDB"/>
<path d="M29.4745 29.0049L21.6321 21.1625L12.4696 12H11.7535L11.6073 12.3715C11.2214 13.3521 11.0565 14.3551 11.1306 15.2719C11.2149 16.3169 11.6119 17.2216 12.2787 17.8884L19.4314 25.0411L20.3748 24.0977L26.9875 31.4919C27.6454 32.1497 28.7776 32.1888 29.4745 31.4919C30.1602 30.8062 30.1602 29.6906 29.4745 29.0049Z" fill="#0065FB"/>
<path d="M16.1162 23.3845L10.5142 28.9865C9.82859 29.6721 9.82859 30.7878 10.5142 31.4734C11.1655 32.1248 12.2923 32.1823 13.0011 31.4734L18.6032 25.8714L16.1162 23.3845Z" fill="#0065FB"/>
<path d="M29.1445 15.3305L25.9667 18.5082L25.1377 17.6792L28.3155 14.5014L27.4865 13.6725L24.3087 16.8502L23.4798 16.0212L26.6575 12.8435L25.8286 12.0145L21.6837 16.1594C21.1766 16.6665 20.8738 17.3398 20.831 18.0553C20.8202 18.2366 20.7791 18.415 20.7109 18.5846L23.4035 21.2771C23.5731 21.2089 23.7514 21.1678 23.9327 21.157C24.6482 21.1143 25.3215 20.8114 25.8286 20.3044L29.9735 16.1595L29.1445 15.3305Z" fill="#0065FB"/>
</svg>
