<svg width="40" height="50" viewBox="0 0 40 50" fill="none" xmlns="http://www.w3.org/2000/svg">
<path d="M39.4042 22.6554L39.4041 22.6554L39.4033 22.6648C38.2242 36.6137 27.1077 45.5942 22.3298 48.78C21.5954 49.2375 20.7882 49.5 20.0008 49.5C19.2136 49.5 18.4068 49.2378 17.6727 48.7806C12.4907 45.2922 0.5 35.5272 0.5 20.2075C0.5 17.5812 1.08411 14.945 2.06428 12.4953C3.03363 10.0726 4.58976 7.92821 6.45373 6.06478C8.31318 4.20587 10.5527 2.65265 12.9698 1.78275C15.419 0.901307 18.0552 0.415001 20.6823 0.512273C23.3077 0.609482 25.8435 1.29025 28.1928 2.36669C30.5149 3.4307 32.5607 5.08131 34.3263 7.04162C36.1802 9.18873 37.5463 11.6275 38.4254 14.3621L38.4271 14.3672C39.3075 17.0076 39.696 19.8353 39.4042 22.6554Z" fill="white" stroke="#DBDBDB"/>
<path d="M32.2994 29.0807C32.3303 28.9882 32.3478 28.8891 32.3478 28.7861V17.9681C32.3478 17.4553 31.9319 17.0397 31.4191 17.0397H26.2499V28.5542C26.2499 28.7391 26.2165 28.9159 26.1575 29.0807H25.5511C25.582 28.9882 25.5996 28.8891 25.5996 28.7861V13.9285C25.5996 13.4157 25.1836 13 24.6708 13H16.5612C16.0483 13 15.6327 13.4157 15.6327 13.9285V28.7861C15.6327 28.8891 15.6502 28.9882 15.6811 29.0807H15.075C15.016 28.9159 14.9826 28.7391 14.9826 28.5542V17.0397H9.93735C9.42453 17.0397 9.00887 17.4553 9.00887 17.9681V28.7861C9.00887 28.8891 9.02641 28.9882 9.05703 29.0807H7.46094V31H33.7716V29.0807H32.2994ZM11.7943 25.2882H10.4633V23.9575H11.7943V25.2882ZM11.7943 22.9516H10.4633V21.6205H11.7943V22.9516ZM11.7943 20.6921H10.4633V19.361H11.7943V20.6921ZM13.8684 25.2882H12.5374V23.9575H13.8684V25.2882ZM13.8684 22.9516H12.5374V21.6205H13.8684V22.9516ZM13.8684 20.6921H12.5374V19.361H13.8684V20.6921ZM22.6825 29.0186H18.7745V24.1432H22.6825V29.0186ZM20.6161 19.9643C18.8084 19.9643 17.3429 18.4988 17.3429 16.6911C17.3429 14.8831 18.8087 13.4176 20.6161 13.4176C22.4241 13.4176 23.8896 14.8831 23.8896 16.6911C23.8896 18.4991 22.4241 19.9643 20.6161 19.9643ZM29.0666 25.2882H27.7358V23.9575H29.0666V25.2882ZM29.0666 22.9516H27.7358V21.6205H29.0666V22.9516ZM29.0666 20.6921H27.7358V19.361H29.0666V20.6921ZM31.1404 25.2882H29.8096V23.9575H31.1404V25.2882ZM31.1404 22.9516H29.8096V21.6205H31.1404V22.9516ZM31.1404 20.6921H29.8096V19.361H31.1404V20.6921ZM21.4285 15.8787H22.6822V17.5035H21.4285V18.7577H19.8037V17.5035H18.5501V15.8787H19.8037V14.6251H21.4285V15.8787Z" fill="#0065FB"/>
</svg>
