<svg width="60" height="81" viewBox="0 0 60 81" fill="none" xmlns="http://www.w3.org/2000/svg">
<path fill-rule="evenodd" clip-rule="evenodd" d="M29.8592 81C40.2817 69.0632 60 46.6105 60 30.1263C60 13.6421 46.4789 0 29.8592 0C13.5211 0 0 13.6421 0 30.1263C0 46.6105 19.7183 69.0632 29.8592 81Z" fill="#D9B48F"/>
<circle cx="30" cy="30" r="25" fill="white"/>
<path fill-rule="evenodd" clip-rule="evenodd" d="M36 22C34.3684 22 33.1579 23.1773 33.1053 24.3983L33 29.3256C33 30.1541 33.8947 30.4593 33.8947 30.4593L33.8421 36.0843C33.8421 36.6076 34.3684 37 34.9474 37C35.5263 37 36 36.6076 36 36.0843V22Z" fill="#2D2D2D"/>
<path fill-rule="evenodd" clip-rule="evenodd" d="M26.9982 37H26.0018C25.3119 37 24.622 36.6006 24.622 36.1568L25.1586 27.9024C22.7057 27.6805 23.0123 26.3047 23.0123 25.2396L24.0854 22.0444L24.8519 22L25.1586 25.3728H25.6951L26.0018 22H26.9982L27.3049 25.3728H27.8414L28.1481 22L28.9146 22.0444L29.9877 25.2396C29.9877 26.3047 30.2943 27.6805 27.8414 27.9024L28.378 36.1568C28.378 36.6006 27.6881 37 26.9982 37Z" fill="#2D2D2D"/>
</svg>
