<svg width="40" height="50" viewBox="0 0 40 50" fill="none" xmlns="http://www.w3.org/2000/svg">
<path d="M39.4042 22.6554L39.4041 22.6554L39.4033 22.6648C38.2242 36.6137 27.1077 45.5942 22.3298 48.78C21.5954 49.2375 20.7882 49.5 20.0008 49.5C19.2136 49.5 18.4068 49.2378 17.6727 48.7806C12.4907 45.2922 0.5 35.5272 0.5 20.2075C0.5 17.5812 1.08411 14.945 2.06428 12.4953C3.03363 10.0726 4.58976 7.92821 6.45373 6.06478C8.31318 4.20587 10.5527 2.65265 12.9698 1.78275C15.419 0.901307 18.0552 0.415001 20.6823 0.512273C23.3077 0.609482 25.8435 1.29025 28.1928 2.36669C30.5149 3.4307 32.5607 5.08131 34.3263 7.04162C36.1802 9.18873 37.5463 11.6275 38.4254 14.3621L38.4271 14.3672C39.3075 17.0076 39.696 19.8353 39.4042 22.6554Z" fill="white" stroke="#DBDBDB"/>
<path d="M30.6203 19.0455C30.5837 18.9002 30.4873 18.7776 30.3554 18.7067C30.2238 18.6363 30.0682 18.6244 29.9271 18.674C28.6898 19.1087 26.7807 19.3884 24.6336 19.3884C24.1116 19.3884 23.6085 19.3685 23.1207 19.3371C22.8685 20.4766 22.4655 21.5229 21.9507 22.4445C21.9757 22.4434 21.9996 22.4393 22.0249 22.4393C22.6921 22.4393 23.2328 22.3837 23.2328 22.8331C23.2328 23.2826 22.6921 24.067 22.0249 24.067C21.6363 24.067 21.2941 23.9413 21.0733 23.7492C20.4065 24.5771 19.6275 25.2299 18.7695 25.6616C19.7368 28.9174 21.9983 31.2013 24.6336 31.2013C28.1494 31.2013 30.9994 27.1368 30.9994 22.1229C30.9994 21.0413 30.8643 20.0064 30.6203 19.0455ZM27.1705 28.5505C27.1592 28.5983 27.1236 28.6373 27.0768 28.6527C27.03 28.6683 26.9784 28.6585 26.9408 28.6267C26.4448 28.21 25.6013 27.9331 24.6336 27.9331C23.6659 27.9331 22.8223 28.21 22.3265 28.6267C22.2888 28.6581 22.2372 28.668 22.1904 28.6527C22.1436 28.637 22.108 28.5983 22.0967 28.5505C22.0557 28.3758 22.0304 28.1957 22.0304 28.0084C22.0304 26.5706 23.196 25.4052 24.6337 25.4052C26.0713 25.4052 27.2368 26.5707 27.2368 28.0084C27.2367 28.1957 27.2115 28.3758 27.1705 28.5505ZM27.2422 24.067C26.575 24.067 26.0343 23.2825 26.0343 22.8331C26.0343 22.3836 26.5751 22.4393 27.2422 22.4393C27.9094 22.4393 28.4502 22.8037 28.4502 23.2532C28.4501 23.7026 27.9094 24.067 27.2422 24.067Z" fill="#0065FB"/>
<path d="M22.7316 16.4789C22.7316 15.3974 22.5966 14.3624 22.3526 13.4016C22.316 13.2563 22.2196 13.1336 22.0877 13.0628C22.0097 13.0212 21.9232 13 21.8361 13C21.7766 13 21.7168 13.0098 21.6594 13.0301C20.4221 13.4648 18.513 13.7444 16.3659 13.7444C14.2186 13.7444 12.3096 13.4648 11.0723 13.0301C11.0152 13.0098 10.9557 13 10.8963 13C10.8091 13 10.7222 13.0214 10.644 13.0632C10.5124 13.1339 10.4157 13.2567 10.3791 13.4016C10.1351 14.3625 10 15.3974 10 16.4789C10 21.4928 12.85 25.5573 16.3659 25.5573C19.8816 25.5573 22.7316 21.4928 22.7316 16.4789ZM12.5492 17.6072C12.5492 17.1577 13.09 16.7933 13.7572 16.7933C14.4243 16.7933 14.9651 17.5777 14.9651 18.0273C14.9651 18.4767 14.4243 18.421 13.7572 18.421C13.09 18.421 12.5492 18.0566 12.5492 17.6072ZM16.3659 23.841C14.9282 23.841 13.7627 22.6755 13.7627 21.2379C13.7627 21.0506 13.7879 20.8704 13.8289 20.6957C13.8402 20.648 13.8758 20.6093 13.9226 20.5935C13.9694 20.5782 14.021 20.5881 14.0586 20.6195C14.5546 21.0362 15.3981 21.3131 16.3658 21.3131C17.3335 21.3131 18.1771 21.0362 18.6729 20.6195C18.7106 20.5877 18.7622 20.5779 18.809 20.5935C18.8558 20.609 18.8914 20.648 18.9027 20.6957C18.9437 20.8704 18.969 21.0506 18.969 21.2379C18.969 22.6755 17.8035 23.841 16.3659 23.841ZM17.7665 18.0273C17.7665 17.5777 18.3073 16.7933 18.9745 16.7933C19.6417 16.7933 20.1825 17.1577 20.1825 17.6072C20.1825 18.0566 19.6417 18.421 18.9745 18.421C18.3073 18.421 17.7665 18.4767 17.7665 18.0273Z" fill="#0065FB"/>
</svg>
