<svg width="40" height="50" viewBox="0 0 40 50" fill="none" xmlns="http://www.w3.org/2000/svg">
<path d="M39.4042 22.6554L39.4041 22.6554L39.4033 22.6648C38.2242 36.6137 27.1077 45.5942 22.3298 48.78C21.5954 49.2375 20.7882 49.5 20.0008 49.5C19.2136 49.5 18.4068 49.2378 17.6727 48.7806C12.4907 45.2922 0.5 35.5272 0.5 20.2075C0.5 17.5812 1.08411 14.945 2.06428 12.4953C3.03363 10.0726 4.58976 7.92821 6.45373 6.06478C8.31318 4.20587 10.5527 2.65265 12.9698 1.78275C15.419 0.901307 18.0552 0.415001 20.6823 0.512273C23.3077 0.609482 25.8435 1.29025 28.1928 2.36669C30.5149 3.4307 32.5607 5.08131 34.3263 7.04162C36.1802 9.18873 37.5463 11.6275 38.4254 14.3621L38.4271 14.3672C39.3075 17.0076 39.696 19.8353 39.4042 22.6554Z" fill="white" stroke="#DBDBDB"/>
<path d="M29.6448 19.1437L27.9909 17.4899L29.2342 16.2471C29.3441 16.1373 29.4059 15.9885 29.4059 15.8329C29.4059 15.6773 29.3441 15.5285 29.2342 15.4186L27.5697 13.7541C27.35 13.5344 26.9609 13.5344 26.7411 13.7541L25.4984 14.9974L23.8443 13.3432C23.3867 12.8856 22.6447 12.8856 22.187 13.3432C21.7293 13.8008 21.7293 14.5428 22.187 15.0005L27.9875 20.801C28.4452 21.2586 29.1872 21.2586 29.6448 20.801C30.1024 20.3434 30.1024 19.6014 29.6448 19.1437Z" fill="#0065FB"/>
<path d="M17.801 30.9994L12.0005 25.1989C11.5428 24.7413 10.8009 24.7413 10.3432 25.1989C9.8856 25.6566 9.8856 26.3986 10.3432 26.8562L11.9973 28.5103L10.7565 29.7506C10.6466 29.8605 10.5848 30.0093 10.5848 30.1649C10.5848 30.3205 10.6466 30.4693 10.7565 30.5792L12.421 32.2432C12.5354 32.3576 12.6854 32.4149 12.8353 32.4149C12.9852 32.4149 13.1351 32.3576 13.2495 32.2432L14.4899 31.0029L16.1437 32.6567C16.6013 33.1144 17.3433 33.1144 17.801 32.6567C18.2587 32.1991 18.2587 31.4571 17.801 30.9994Z" fill="#0065FB"/>
<path d="M20.5299 19.9724L16.9727 23.5418L19.4586 26.0277L23.0159 22.4583L20.5299 19.9724Z" fill="#0065FB"/>
<path d="M27.9857 22.4582L20.5279 15.0004C20.0703 14.5428 19.3282 14.5428 18.8706 15.0004C18.4129 15.4581 18.4129 16.2001 18.8706 16.6577L26.3284 24.1155C26.786 24.5732 27.528 24.5732 27.9857 24.1155C28.4434 23.6579 28.4434 22.9159 27.9857 22.4582Z" fill="#0065FB"/>
<path d="M21.1146 29.3422L13.6568 21.8844C13.1991 21.4267 12.4571 21.4267 11.9995 21.8844C11.5418 22.342 11.5418 23.084 11.9995 23.5417L19.4573 30.9994C19.9149 31.4571 20.6569 31.4571 21.1146 30.9994C21.5723 30.5418 21.5723 29.7998 21.1146 29.3422Z" fill="#0065FB"/>
</svg>
