<svg width="40" height="50" viewBox="0 0 40 50" fill="none" xmlns="http://www.w3.org/2000/svg">
<path d="M39.4042 22.6554L39.4041 22.6554L39.4033 22.6648C38.2242 36.6137 27.1077 45.5942 22.3298 48.78C21.5954 49.2375 20.7882 49.5 20.0008 49.5C19.2136 49.5 18.4068 49.2378 17.6727 48.7806C12.4907 45.2922 0.5 35.5272 0.5 20.2075C0.5 17.5812 1.08411 14.945 2.06428 12.4953C3.03363 10.0726 4.58976 7.92821 6.45373 6.06478C8.31318 4.20587 10.5527 2.65265 12.9698 1.78275C15.419 0.901307 18.0552 0.415001 20.6823 0.512273C23.3077 0.609482 25.8435 1.29025 28.1928 2.36669C30.5149 3.4307 32.5607 5.08131 34.3263 7.04162C36.1802 9.18873 37.5463 11.6275 38.4254 14.3621L38.4271 14.3672C39.3075 17.0076 39.696 19.8353 39.4042 22.6554Z" fill="white" stroke="#DBDBDB"/>
<path d="M19.7266 18.0097H21.265L20.4958 16.4713L19.7266 18.0097Z" fill="#0065FB"/>
<path d="M24.9512 13H16.0449C15.7372 13 15.4883 13.249 15.4883 13.5566V21.9434H25.5078V13.5566C25.5078 13.249 25.2588 13 24.9512 13ZM22.9736 20.1776C22.8931 20.2173 22.8083 20.2363 22.7246 20.2363C22.5213 20.2363 22.3245 20.1238 22.2267 19.9287L21.8239 19.123H19.1722L18.7695 19.9287C18.6716 20.1238 18.4748 20.2363 18.2715 20.2363C18.1878 20.2363 18.103 20.2173 18.0225 20.1776C17.7475 20.0401 17.6366 19.7058 17.7736 19.4307L20.0001 14.9776C20.0029 14.9721 20.1644 14.6744 20.5001 14.6763C20.8342 14.677 20.9933 14.9722 20.996 14.9776L23.2225 19.4307C23.3595 19.7058 23.2486 20.0401 22.9736 20.1776Z" fill="#0065FB"/>
<path d="M16.6016 26.3965C16.6016 26.0894 16.3515 25.8398 16.0449 25.8398H14.375V26.9531H16.0449C16.3515 26.9531 16.6016 26.7036 16.6016 26.3965Z" fill="#0065FB"/>
<path d="M19.9434 23.0566H11.5566C11.249 23.0566 11 23.3056 11 23.6133V31.4434C11 31.751 11.249 32 11.5566 32H19.9434V23.0566ZM16.0469 30.293H13.8203C13.5126 30.293 13.2637 30.044 13.2637 29.7363C13.2637 29.6155 13.2637 25.1179 13.2637 25.2832C13.2637 24.9755 13.5126 24.7266 13.8203 24.7266H16.0469C16.9677 24.7266 17.7168 25.4757 17.7168 26.3965C17.7168 26.8257 17.5495 27.2136 17.2825 27.5098C17.5495 27.8059 17.7168 28.1938 17.7168 28.623C17.7168 29.5439 16.9677 30.293 16.0469 30.293Z" fill="#0065FB"/>
<path d="M16.0449 28.0664H14.375V29.1797H16.0449C16.3515 29.1797 16.6016 28.9302 16.6016 28.623C16.6016 28.3159 16.3515 28.0664 16.0449 28.0664Z" fill="#0065FB"/>
<path d="M29.4414 23.0566H21.0547V32H29.4414C29.7491 32 29.998 31.751 29.998 31.4434V23.6133C29.998 23.3056 29.7491 23.0566 29.4414 23.0566ZM25.5078 29.1797C25.9546 29.1797 26.3732 29.0063 26.6874 28.691C26.9048 28.4725 27.2582 28.4736 27.4756 28.6899C27.693 28.9068 27.693 29.2596 27.4767 29.477C26.9516 30.0032 26.2525 30.293 25.5078 30.293C23.9727 30.293 22.7246 29.0443 22.7246 27.5098C22.7246 25.9752 23.9727 24.7266 25.5078 24.7266C26.2525 24.7266 26.9516 25.0163 27.4767 25.5425C27.6931 25.7599 27.6931 26.1127 27.4756 26.3296C27.2582 26.546 26.9049 26.547 26.6874 26.3285C26.3732 26.0133 25.9546 25.8398 25.5078 25.8398C24.587 25.8398 23.8379 26.5889 23.8379 27.5098C23.8379 28.4306 24.587 29.1797 25.5078 29.1797Z" fill="#0065FB"/>
</svg>
