<svg width="60" height="81" viewBox="0 0 60 81" fill="none" xmlns="http://www.w3.org/2000/svg">
<path fill-rule="evenodd" clip-rule="evenodd" d="M29.8592 81C40.2817 69.0632 60 46.6105 60 30.1263C60 13.6421 46.4789 0 29.8592 0C13.5211 0 0 13.6421 0 30.1263C0 46.6105 19.7183 69.0632 29.8592 81Z" fill="#D9B48F"/>
<circle cx="30" cy="30" r="25" fill="white"/>
<path d="M21.9091 33.5311C22.0424 33.5296 22.1738 33.5008 22.2944 33.4468C22.415 33.3927 22.5221 33.3146 22.6084 33.2178V34.1067C22.6058 34.2882 22.6616 34.4662 22.7683 34.6167C22.875 34.7671 23.0274 34.8828 23.2052 34.9482C23.3829 35.0135 23.5773 35.0254 23.7624 34.9822C23.9474 34.939 24.1141 34.8429 24.2401 34.7067V35.1111C24.2401 35.3469 24.3383 35.573 24.5132 35.7397C24.688 35.9064 24.9252 36 25.1725 36C25.4198 36 25.6569 35.9064 25.8318 35.7397C26.0067 35.573 26.1049 35.3469 26.1049 35.1111V30.8889H33.8951V35.1111C33.8951 35.3469 33.9933 35.573 34.1682 35.7397C34.3431 35.9064 34.5802 36 34.8275 36C35.0748 36 35.312 35.9064 35.4868 35.7397C35.6617 35.573 35.7599 35.3469 35.7599 35.1111V34.7067C35.8881 34.8353 36.0538 34.9245 36.2356 34.9626C36.4174 35.0007 36.607 34.9861 36.78 34.9206C36.953 34.8551 37.1015 34.7417 37.2064 34.5951C37.3112 34.4484 37.3676 34.2752 37.3683 34.0978V33.2089C37.4928 33.3435 37.6572 33.4391 37.8398 33.483C38.0224 33.5268 38.2146 33.517 38.3912 33.4547C38.5678 33.3924 38.7205 33.2806 38.8292 33.134C38.9378 32.9874 38.9974 32.8128 39 32.6333V27.3578C38.9974 27.1783 38.9378 27.0037 38.8292 26.8571C38.7205 26.7105 38.5678 26.5987 38.3912 26.5364C38.2146 26.4741 38.0224 26.4643 37.8398 26.5081C37.6572 26.552 37.4928 26.6476 37.3683 26.7822V25.8933C37.3658 25.7166 37.308 25.5446 37.2025 25.3994C37.097 25.2541 36.9484 25.1421 36.7758 25.0777C36.6031 25.0133 36.4143 24.9994 36.2333 25.0378C36.0524 25.0762 35.8876 25.1652 35.7599 25.2933V24.8889C35.7599 24.6531 35.6617 24.427 35.4868 24.2603C35.312 24.0937 35.0748 24 34.8275 24C34.5802 24 34.3431 24.0937 34.1682 24.2603C33.9933 24.427 33.8951 24.6531 33.8951 24.8889V29.1111H26.1049V24.8889C26.1049 24.6531 26.0067 24.427 25.8318 24.2603C25.6569 24.0937 25.4198 24 25.1725 24C24.9252 24 24.688 24.0937 24.5132 24.2603C24.3383 24.427 24.2401 24.6531 24.2401 24.8889V25.3044C24.1119 25.1758 23.9462 25.0866 23.7644 25.0485C23.5826 25.0104 23.393 25.025 23.22 25.0905C23.047 25.156 22.8985 25.2694 22.7936 25.416C22.6888 25.5627 22.6324 25.7359 22.6317 25.9133V26.8022C22.5072 26.6676 22.3428 26.572 22.1602 26.5281C21.9776 26.4843 21.7854 26.4941 21.6088 26.5564C21.4322 26.6187 21.2795 26.7305 21.1708 26.8771C21.0622 27.0237 21.0026 27.1983 21 27.3778V32.6422C20.9999 32.8742 21.095 33.097 21.2648 33.263C21.4347 33.4291 21.6659 33.5253 21.9091 33.5311Z" fill="#2D2D2D"/>
</svg>
