<svg width="128" height="55" viewBox="0 0 128 55" fill="none" xmlns="http://www.w3.org/2000/svg">
<path d="M128 0H0V50H60.9L64 55L67.1 50H128V0Z" fill="#F3EFE9"/>
<path d="M43 32.7133C41.5981 35.043 38.2467 38 32.5514 38C25.9143 38 20 33.2957 20 25.5C20 17.3459 26.199 13 32.7705 13C35.7933 13 39.2981 14.0977 42.3429 15.2849V22.2294H41.9267C40.4809 15.5538 36.8009 13.5824 33.5371 13.5824C28.4114 13.5824 22.76 17.3907 23.0886 25.5C23.3952 32.6013 28.5648 36.2751 33.9533 36.3423C38.8819 36.3871 41.5543 33.7661 42.6495 32.3996L43 32.7133Z" fill="#2D2D2D"/>
<path d="M66.6 21.12C66.152 21.12 65.736 21.044 65.352 20.892C64.968 20.732 64.636 20.516 64.356 20.244C64.084 19.964 63.868 19.632 63.708 19.248C63.556 18.864 63.48 18.448 63.48 18C63.48 17.552 63.556 17.136 63.708 16.752C63.868 16.368 64.084 16.04 64.356 15.768C64.636 15.488 64.968 15.272 65.352 15.12C65.736 14.96 66.152 14.88 66.6 14.88C67.048 14.88 67.464 14.96 67.848 15.12C68.232 15.272 68.56 15.488 68.832 15.768C69.112 16.04 69.328 16.368 69.48 16.752C69.64 17.136 69.72 17.552 69.72 18C69.72 18.448 69.64 18.864 69.48 19.248C69.328 19.632 69.112 19.964 68.832 20.244C68.56 20.516 68.232 20.732 67.848 20.892C67.464 21.044 67.048 21.12 66.6 21.12ZM66.6 20.22C66.912 20.22 67.2 20.168 67.464 20.064C67.728 19.952 67.956 19.8 68.148 19.608C68.34 19.408 68.488 19.172 68.592 18.9C68.704 18.628 68.76 18.328 68.76 18C68.76 17.672 68.704 17.372 68.592 17.1C68.488 16.828 68.34 16.596 68.148 16.404C67.956 16.204 67.728 16.052 67.464 15.948C67.2 15.836 66.912 15.78 66.6 15.78C66.288 15.78 66 15.836 65.736 15.948C65.472 16.052 65.244 16.204 65.052 16.404C64.86 16.596 64.708 16.828 64.596 17.1C64.492 17.372 64.44 17.672 64.44 18C64.44 18.328 64.492 18.628 64.596 18.9C64.708 19.172 64.86 19.408 65.052 19.608C65.244 19.8 65.472 19.952 65.736 20.064C66 20.168 66.288 20.22 66.6 20.22ZM73.7353 21.06C73.2873 21.028 72.8713 20.928 72.4873 20.76C72.1033 20.592 71.7713 20.372 71.4913 20.1C71.2193 19.82 71.0033 19.504 70.8433 19.152C70.6913 18.792 70.6153 18.408 70.6153 18C70.6153 17.592 70.6913 17.212 70.8433 16.86C71.0033 16.5 71.2193 16.184 71.4913 15.912C71.7713 15.632 72.1033 15.408 72.4873 15.24C72.8713 15.072 73.2873 14.972 73.7353 14.94V12.6H74.6953V14.94C75.1433 14.972 75.5593 15.072 75.9433 15.24C76.3273 15.408 76.6553 15.632 76.9273 15.912C77.2073 16.184 77.4233 16.5 77.5753 16.86C77.7353 17.212 77.8153 17.592 77.8153 18C77.8153 18.408 77.7353 18.792 77.5753 19.152C77.4233 19.504 77.2073 19.82 76.9273 20.1C76.6553 20.372 76.3273 20.592 75.9433 20.76C75.5593 20.928 75.1433 21.028 74.6953 21.06V23.28H73.7353V21.06ZM73.7353 15.84C73.4233 15.856 73.1353 15.92 72.8713 16.032C72.6073 16.144 72.3793 16.296 72.1873 16.488C71.9953 16.68 71.8433 16.908 71.7313 17.172C71.6273 17.428 71.5753 17.704 71.5753 18C71.5753 18.304 71.6273 18.584 71.7313 18.84C71.8433 19.096 71.9953 19.32 72.1873 19.512C72.3793 19.704 72.6073 19.856 72.8713 19.968C73.1353 20.08 73.4233 20.144 73.7353 20.16V15.84ZM74.6953 20.16C75.0073 20.144 75.2953 20.08 75.5593 19.968C75.8233 19.856 76.0513 19.704 76.2433 19.512C76.4353 19.32 76.5833 19.096 76.6873 18.84C76.7993 18.584 76.8553 18.304 76.8553 18C76.8553 17.704 76.7993 17.428 76.6873 17.172C76.5833 16.908 76.4353 16.68 76.2433 16.488C76.0513 16.296 75.8233 16.144 75.5593 16.032C75.2953 15.92 75.0073 15.856 74.6953 15.84V20.16ZM79.0744 15H80.0344V21H79.0744V15ZM79.5544 13.86C79.3704 13.86 79.2144 13.796 79.0864 13.668C78.9584 13.54 78.8944 13.384 78.8944 13.2C78.8944 13.016 78.9584 12.86 79.0864 12.732C79.2144 12.604 79.3704 12.54 79.5544 12.54C79.7384 12.54 79.8944 12.604 80.0224 12.732C80.1504 12.86 80.2144 13.016 80.2144 13.2C80.2144 13.384 80.1504 13.54 80.0224 13.668C79.8944 13.796 79.7384 13.86 79.5544 13.86ZM84.3511 21.12C83.9271 21.12 83.5311 21.044 83.1631 20.892C82.8031 20.732 82.4871 20.516 82.2151 20.244C81.9511 19.964 81.7391 19.632 81.5791 19.248C81.4271 18.864 81.3511 18.448 81.3511 18C81.3511 17.552 81.4271 17.136 81.5791 16.752C81.7391 16.368 81.9511 16.04 82.2151 15.768C82.4871 15.488 82.8031 15.272 83.1631 15.12C83.5311 14.96 83.9271 14.88 84.3511 14.88C84.6471 14.88 84.9151 14.912 85.1551 14.976C85.4031 15.032 85.6231 15.112 85.8151 15.216C86.0071 15.312 86.1751 15.424 86.3191 15.552C86.4631 15.68 86.5871 15.808 86.6911 15.936C86.9391 16.248 87.1191 16.596 87.2311 16.98H86.2711C86.1751 16.756 86.0431 16.556 85.8751 16.38C85.7311 16.228 85.5351 16.092 85.2871 15.972C85.0391 15.844 84.7271 15.78 84.3511 15.78C84.0631 15.78 83.7951 15.836 83.5471 15.948C83.2991 16.052 83.0831 16.204 82.8991 16.404C82.7151 16.596 82.5711 16.828 82.4671 17.1C82.3631 17.372 82.3111 17.672 82.3111 18C82.3111 18.336 82.3671 18.64 82.4791 18.912C82.5911 19.184 82.7391 19.416 82.9231 19.608C83.1071 19.8 83.3231 19.952 83.5711 20.064C83.8191 20.168 84.0791 20.22 84.3511 20.22C84.7431 20.22 85.0631 20.152 85.3111 20.016C85.5671 19.88 85.7711 19.728 85.9231 19.56C86.0991 19.368 86.2351 19.148 86.3311 18.9H87.2911C87.1791 19.324 86.9951 19.696 86.7391 20.016C86.6271 20.152 86.4991 20.288 86.3551 20.424C86.2111 20.552 86.0391 20.668 85.8391 20.772C85.6471 20.876 85.4271 20.96 85.1791 21.024C84.9311 21.088 84.6551 21.12 84.3511 21.12ZM63.84 31H69.06V37H68.1V31.9H64.8V37H63.84V31ZM70.7423 31H71.7023V31.96H71.7143C71.7143 31.96 71.7503 31.904 71.8223 31.792C71.9023 31.672 72.0263 31.548 72.1943 31.42C72.3703 31.284 72.5943 31.16 72.8663 31.048C73.1383 30.936 73.4703 30.88 73.8623 30.88C74.2543 30.88 74.6223 30.96 74.9663 31.12C75.3183 31.272 75.6263 31.488 75.8903 31.768C76.1543 32.04 76.3623 32.368 76.5143 32.752C76.6663 33.136 76.7423 33.552 76.7423 34C76.7423 34.448 76.6663 34.864 76.5143 35.248C76.3623 35.632 76.1543 35.964 75.8903 36.244C75.6263 36.516 75.3183 36.732 74.9663 36.892C74.6223 37.044 74.2543 37.12 73.8623 37.12C73.4703 37.12 73.1383 37.064 72.8663 36.952C72.5943 36.84 72.3703 36.72 72.1943 36.592C72.0263 36.456 71.9023 36.332 71.8223 36.22C71.7503 36.1 71.7143 36.04 71.7143 36.04H71.7023V39.28H70.7423V31ZM73.7423 36.22C74.0303 36.22 74.2983 36.168 74.5463 36.064C74.7943 35.952 75.0103 35.8 75.1943 35.608C75.3783 35.408 75.5223 35.172 75.6263 34.9C75.7303 34.628 75.7823 34.328 75.7823 34C75.7823 33.672 75.7303 33.372 75.6263 33.1C75.5223 32.828 75.3783 32.596 75.1943 32.404C75.0103 32.204 74.7943 32.052 74.5463 31.948C74.2983 31.836 74.0303 31.78 73.7423 31.78C73.4543 31.78 73.1863 31.836 72.9383 31.948C72.6903 32.052 72.4743 32.204 72.2903 32.404C72.1063 32.596 71.9623 32.828 71.8583 33.1C71.7543 33.372 71.7023 33.672 71.7023 34C71.7023 34.328 71.7543 34.628 71.8583 34.9C71.9623 35.172 72.1063 35.408 72.2903 35.608C72.4743 35.8 72.6903 35.952 72.9383 36.064C73.1863 36.168 73.4543 36.22 73.7423 36.22ZM80.8266 37.12C80.3786 37.12 79.9626 37.044 79.5786 36.892C79.1946 36.732 78.8626 36.516 78.5826 36.244C78.3106 35.964 78.0946 35.632 77.9346 35.248C77.7826 34.864 77.7066 34.448 77.7066 34C77.7066 33.552 77.7826 33.136 77.9346 32.752C78.0946 32.368 78.3106 32.04 78.5826 31.768C78.8626 31.488 79.1946 31.272 79.5786 31.12C79.9626 30.96 80.3786 30.88 80.8266 30.88C81.2746 30.88 81.6906 30.96 82.0746 31.12C82.4586 31.272 82.7866 31.488 83.0586 31.768C83.3386 32.04 83.5546 32.368 83.7066 32.752C83.8666 33.136 83.9466 33.552 83.9466 34C83.9466 34.448 83.8666 34.864 83.7066 35.248C83.5546 35.632 83.3386 35.964 83.0586 36.244C82.7866 36.516 82.4586 36.732 82.0746 36.892C81.6906 37.044 81.2746 37.12 80.8266 37.12ZM80.8266 36.22C81.1386 36.22 81.4266 36.168 81.6906 36.064C81.9546 35.952 82.1826 35.8 82.3746 35.608C82.5666 35.408 82.7146 35.172 82.8186 34.9C82.9306 34.628 82.9866 34.328 82.9866 34C82.9866 33.672 82.9306 33.372 82.8186 33.1C82.7146 32.828 82.5666 32.596 82.3746 32.404C82.1826 32.204 81.9546 32.052 81.6906 31.948C81.4266 31.836 81.1386 31.78 80.8266 31.78C80.5146 31.78 80.2266 31.836 79.9626 31.948C79.6986 32.052 79.4706 32.204 79.2786 32.404C79.0866 32.596 78.9346 32.828 78.8226 33.1C78.7186 33.372 78.6666 33.672 78.6666 34C78.6666 34.328 78.7186 34.628 78.8226 34.9C78.9346 35.172 79.0866 35.408 79.2786 35.608C79.4706 35.8 79.6986 35.952 79.9626 36.064C80.2266 36.168 80.5146 36.22 80.8266 36.22ZM84.4819 36.1H85.1419L86.5219 31H89.0419L90.4219 36.1H91.0819V38.38H90.1219V37H85.4419V38.38H84.4819V36.1ZM89.4619 36.1L88.3219 31.9H87.2419L86.1019 36.1H89.4619ZM94.4967 37.12C94.1047 37.12 93.7327 37.044 93.3807 36.892C93.0367 36.732 92.7327 36.516 92.4687 36.244C92.2047 35.964 91.9967 35.632 91.8447 35.248C91.6927 34.864 91.6167 34.448 91.6167 34C91.6167 33.552 91.6927 33.136 91.8447 32.752C91.9967 32.368 92.2047 32.04 92.4687 31.768C92.7327 31.488 93.0367 31.272 93.3807 31.12C93.7327 30.96 94.1047 30.88 94.4967 30.88C94.8887 30.88 95.2207 30.936 95.4927 31.048C95.7647 31.16 95.9847 31.284 96.1527 31.42C96.3287 31.556 96.4527 31.684 96.5247 31.804C96.6047 31.916 96.6447 31.972 96.6447 31.972H96.6567V31H97.6167V37H96.6567V36.04H96.6447C96.6447 36.04 96.6047 36.1 96.5247 36.22C96.4527 36.332 96.3287 36.456 96.1527 36.592C95.9847 36.72 95.7647 36.84 95.4927 36.952C95.2207 37.064 94.8887 37.12 94.4967 37.12ZM94.6167 36.22C94.9047 36.22 95.1727 36.168 95.4207 36.064C95.6687 35.952 95.8847 35.8 96.0687 35.608C96.2527 35.408 96.3967 35.172 96.5007 34.9C96.6047 34.628 96.6567 34.328 96.6567 34C96.6567 33.672 96.6047 33.372 96.5007 33.1C96.3967 32.828 96.2527 32.596 96.0687 32.404C95.8847 32.204 95.6687 32.052 95.4207 31.948C95.1727 31.836 94.9047 31.78 94.6167 31.78C94.3287 31.78 94.0607 31.836 93.8127 31.948C93.5647 32.052 93.3487 32.204 93.1647 32.404C92.9807 32.596 92.8367 32.828 92.7327 33.1C92.6287 33.372 92.5767 33.672 92.5767 34C92.5767 34.328 92.6287 34.628 92.7327 34.9C92.8367 35.172 92.9807 35.408 93.1647 35.608C93.3487 35.8 93.5647 35.952 93.8127 36.064C94.0607 36.168 94.3287 36.22 94.6167 36.22ZM100.801 33.82L98.7009 31H99.8409L101.641 33.4H102.661V31H103.621V33.4H104.641L106.441 31H107.581L105.481 33.82L107.761 37H106.561L104.641 34.3H103.621V37H102.661V34.3H101.641L99.7209 37H98.5209L100.801 33.82Z" fill="#2D2D2D"/>
<path d="M53 41L53 13" stroke="#989898" stroke-opacity="0.25"/>
</svg>
