<svg width="60" height="81" viewBox="0 0 60 81" fill="none" xmlns="http://www.w3.org/2000/svg">
<path fill-rule="evenodd" clip-rule="evenodd" d="M29.8592 81C40.2817 69.0632 60 46.6105 60 30.1263C60 13.6421 46.4789 0 29.8592 0C13.5211 0 0 13.6421 0 30.1263C0 46.6105 19.7183 69.0632 29.8592 81Z" fill="#D9B48F"/>
<circle cx="30" cy="30" r="25" fill="white"/>
<path d="M37.1801 34.7892V23C37.1801 23 37.1801 23 36.4573 23C33.5054 23 31.9693 23.4891 30.6748 24.4736V36.2628C31.9695 35.2786 33.5054 34.7892 36.4573 34.7892C37.1801 34.7892 37.1801 34.7892 37.1801 34.7892Z" fill="#2D2D2D"/>
<path d="M22.7228 35.5265V24.4741L22 25.2109C22 25.2109 22 34.9198 22 36.1716C22.6724 36.1716 23.7019 36.1716 24.1684 36.1716C26.3837 36.1716 27.8014 36.4472 28.9181 37.0004H29.9512C28.6115 35.7096 25.6141 35.5268 23.4456 35.5268C22.7228 35.5265 22.7228 35.5265 22.7228 35.5265Z" fill="#2D2D2D"/>
<path d="M23.4458 23V34.7892C23.4458 34.7892 23.4458 34.7892 24.1686 34.7892C27.1207 34.7892 28.6567 35.2786 29.9514 36.2628V24.4736C28.6567 23.4894 27.1207 23 24.1686 23C23.4458 23 23.4458 23 23.4458 23Z" fill="#2D2D2D"/>
<path d="M37.9032 24.4741V35.5265C37.9032 35.5265 37.9032 35.5265 37.1804 35.5265C35.0117 35.5265 32.0148 35.7093 30.6748 37.0002H31.7079C32.8246 36.4469 34.2423 36.1713 36.4573 36.1713C37.0341 36.1713 38.1835 36.1713 38.626 36.1713C38.626 34.9196 38.626 25.2107 38.626 25.2107L37.9032 24.4741Z" fill="#2D2D2D"/>
</svg>
