<svg width="40" height="50" viewBox="0 0 40 50" fill="none" xmlns="http://www.w3.org/2000/svg">
<path d="M39.4042 22.6554L39.4041 22.6554L39.4033 22.6648C38.2242 36.6137 27.1077 45.5942 22.3298 48.78C21.5954 49.2375 20.7882 49.5 20.0008 49.5C19.2136 49.5 18.4068 49.2378 17.6727 48.7806C12.4907 45.2922 0.5 35.5272 0.5 20.2075C0.5 17.5812 1.08411 14.945 2.06428 12.4953C3.03363 10.0726 4.58976 7.92821 6.45373 6.06478C8.31318 4.20587 10.5527 2.65265 12.9698 1.78275C15.419 0.901307 18.0552 0.415001 20.6823 0.512273C23.3077 0.609482 25.8435 1.29025 28.1928 2.36669C30.5149 3.4307 32.5607 5.08131 34.3263 7.04162C36.1802 9.18873 37.5463 11.6275 38.4254 14.3621L38.4271 14.3672C39.3075 17.0076 39.696 19.8353 39.4042 22.6554Z" fill="white" stroke="#DBDBDB"/>
<path d="M10.0117 13L10.0117 22.4956L19.4411 22.4956L19.4411 13L10.0117 13Z" fill="#02996D"/>
<path d="M19.4411 22.5044H10.0117V32H19.4411V22.5044Z" fill="#FDC60C"/>
<path d="M19.4297 22.5044V31.9861H28.859L19.4297 22.5044Z" fill="black"/>
<path d="M25.7225 22.5044C28.3263 22.5044 30.4372 20.3787 30.4372 17.7566C30.4372 15.1344 28.3263 13.0088 25.7225 13.0088C23.1186 13.0088 21.0078 15.1344 21.0078 17.7566C21.0078 20.3787 23.1186 22.5044 25.7225 22.5044Z" fill="#EA4041"/>
<path d="M19.4293 22.505C19.4293 17.2589 15.2095 13.0095 10 13.0095V22.505H19.4293Z" fill="#0065FB"/>
</svg>
