<svg width="18" height="20" viewBox="0 0 18 20" fill="none" xmlns="http://www.w3.org/2000/svg">
<path d="M16.0933 5.45687C16.0872 5.37547 16.019 5.3125 15.9375 5.3125H13.125V4.53125C13.125 2.03266 11.0922 0 8.59373 0C6.09529 0 4.06248 2.03266 4.06248 4.53125V5.3125H1.24998C1.16842 5.3125 1.10029 5.37547 1.0942 5.45687L0.000447979 19.8319C-0.00283327 19.8752 0.0120105 19.918 0.041698 19.9498C0.0712292 19.9819 0.112792 20 0.156229 20H17.0312C17.0747 20 17.1162 19.9819 17.1458 19.95C17.1753 19.9181 17.1903 19.8753 17.187 19.832L16.0933 5.45687ZM5.31248 4.53125C5.31248 2.72203 6.78435 1.25 8.59373 1.25C10.4031 1.25 11.875 2.72203 11.875 4.53125V5.3125H5.31248V4.53125ZM4.68748 9.6875C3.82576 9.6875 3.12498 8.98656 3.12498 8.125C3.12498 7.50141 3.43748 6.93953 4.06248 6.69297V8.125C4.06248 8.46969 4.34295 8.75 4.68748 8.75C5.03201 8.75 5.31248 8.46969 5.31248 8.125V6.69391C5.93748 6.94047 6.24998 7.50656 6.24998 8.125C6.24998 8.98656 5.5492 9.6875 4.68748 9.6875ZM12.5 9.6875C11.6383 9.6875 10.9375 8.98656 10.9375 8.125C10.9375 7.50141 11.25 6.93953 11.875 6.69297V8.125C11.875 8.46969 12.1554 8.75 12.5 8.75C12.8445 8.75 13.125 8.46969 13.125 8.125V6.69391C13.75 6.94047 14.0625 7.50656 14.0625 8.125C14.0625 8.98656 13.3617 9.6875 12.5 9.6875Z" fill="#0065FB"/>
</svg>
