<svg width="107" height="107" viewBox="0 0 107 107" fill="none" xmlns="http://www.w3.org/2000/svg">
<path d="M35.4906 18.5594L34.5011 19.1307L36.9327 23.3424L35.7149 24.0456L33.2832 19.8338L32.2366 20.4381L32.055 26.1586L30.5327 27.0375L30.8282 20.3717L25.4417 17.663L26.8815 16.8317L31.6507 19.4232L32.6973 18.819L30.3828 14.8102L31.6007 14.1071L33.9151 18.1158L34.9173 17.5372L35.0576 12.1112L36.4911 11.2836L36.14 17.2965L42.0642 20.3798L40.5482 21.255L35.4906 18.5594Z" fill="#FAFAFA"/>
<path d="M52.7698 8.45542L54.1722 8.35033L54.9691 18.9846L53.5668 19.0897L52.9527 10.8949L48.33 19.4821L46.9204 19.5877L46.1234 8.9535L47.5331 8.84786L48.1472 17.0427L52.7698 8.45542Z" fill="#FAFAFA"/>
<path d="M73.3557 14.3242L70.1649 13.0719L66.6917 21.9216L65.3895 21.4105L68.8627 12.5609L65.6787 11.3112L66.1015 10.234L73.7785 13.247L73.3557 14.3242Z" fill="#FAFAFA"/>
<path d="M88.1858 25.0137L89.1423 26.0446L81.325 33.298L80.3685 32.2671L86.3925 26.6776L76.7966 28.4175L75.8351 27.3813L83.6524 20.1279L84.6139 21.1641L78.5898 26.7536L88.1858 25.0137Z" fill="#FAFAFA"/>
<path d="M87.7127 55.221L98.2577 56.8104L97.7381 60.2578C97.5656 61.4021 97.1995 62.2259 96.6397 62.7291C96.0792 63.2372 95.3354 63.4214 94.4084 63.2817C93.9159 63.2074 93.5001 63.0015 93.1608 62.664C92.8264 62.3272 92.5918 61.9017 92.457 61.3876C92.2118 61.9333 91.8399 62.3365 91.3414 62.5972C90.847 62.8634 90.2908 62.9499 89.6727 62.8567C88.7264 62.7141 88.029 62.2954 87.5807 61.6007C87.1324 60.906 86.9926 59.9986 87.1614 58.8784L87.7127 55.221ZM92.4352 57.355L88.6402 56.783L88.2941 59.0788C88.1966 59.7258 88.2864 60.2603 88.5635 60.6823C88.8447 61.1098 89.2799 61.368 89.8689 61.4568C91.1388 61.6482 91.8778 61.0534 92.0859 59.6725L92.4352 57.355ZM93.5505 57.5231L93.234 59.6234C93.1423 60.2317 93.2212 60.7399 93.4708 61.1479C93.7197 61.5607 94.1049 61.8064 94.6263 61.885C95.2057 61.9723 95.6512 61.8666 95.9629 61.5679C96.2794 61.27 96.4897 60.7758 96.5938 60.0853L96.9038 58.0285L93.5505 57.5231Z" fill="#FAFAFA"/>
<path d="M79.192 90.4675L77.9678 91.1743L73.2107 82.9348L68.6565 85.5642L73.4135 93.8037L72.1957 94.5068L67.4533 86.2927L66.4828 86.853L64.722 83.5395L65.8193 82.9059L67.1047 85.1323L73.8599 81.2321L79.192 90.4675Z" fill="#FAFAFA"/>
<path d="M52.9868 92.8663L57.5955 92.5209L57.313 88.7522L51.9594 89.1534L51.8735 88.0067L58.6294 87.5004L59.4263 98.1346L52.7434 98.6354L52.6569 97.4814L57.9376 97.0857L57.6814 93.6676L53.0727 94.0129L52.9868 92.8663Z" fill="#FAFAFA"/>
<path d="M36.7297 83.8547L38.0455 84.3712L36.2447 88.9596L41.249 90.9237L43.0499 86.3352L44.3589 86.849L40.4629 96.7759L39.1538 96.2621L40.8289 91.9941L35.8246 90.03L34.1495 94.2981L32.8336 93.7816L36.7297 83.8547Z" fill="#FAFAFA"/>
<path d="M18.2039 80.0999L20.5354 82.6126L27.5044 76.1463L28.4559 77.1718L21.4869 83.6381L23.8134 86.1455L22.9651 86.9326L17.3556 80.887L18.2039 80.0999Z" fill="#FAFAFA"/>
<path d="M17.1376 66.8403L21.1269 65.6097L21.5414 66.9535L11.3511 70.0968L10.1918 66.3384C9.84784 65.2233 9.86333 64.263 10.2383 63.4575C10.6118 62.6473 11.2674 62.0976 12.2053 61.8083C13.1945 61.5032 14.053 61.5782 14.781 62.0332C15.5029 62.4851 16.0416 63.2872 16.3971 64.4397L17.1376 66.8403ZM16.0388 67.1792L15.294 64.7646C15.0723 64.0461 14.7345 63.5473 14.2806 63.2683C13.8219 62.9908 13.273 62.9506 12.6338 63.1478C12.0272 63.3349 11.601 63.6759 11.3551 64.1707C11.1091 64.6656 11.0821 65.2488 11.2739 65.9204L12.0424 68.4119L16.0388 67.1792Z" fill="#FAFAFA"/>
<path d="M19.5093 47.4649L19.2997 48.8555L8.75476 47.2661L8.96435 45.8755L19.5093 47.4649Z" fill="#FAFAFA"/>
</svg>
