<svg class="pattern-404" width="1364" height="950" viewBox="0 0 1364 950" fill="none" xmlns="http://www.w3.org/2000/svg">
<g class="pattern-letter">
<path class="" d="M672 26V2H676.832L689.618 22.2286H689.692L689.655 21.8857V2H693V26H688.168L675.382 5.77143H675.308L675.345 6.11429V25.9657L672 26Z" fill="#D2D2D2"/>
<path class="" d="M719.675 23.244C717.41 20.5967 716.459 17.3252 716.821 13.4294C717.182 9.53369 718.73 6.38087 721.465 3.97098C724.226 1.53793 727.524 0.403177 731.36 0.566721C735.196 0.730265 738.247 2.1357 740.512 4.78301C742.803 7.40717 743.768 10.6671 743.406 14.5628C743.045 18.4586 741.483 21.623 738.722 24.056C735.988 26.4659 732.703 27.5891 728.867 27.4256C725.03 27.262 721.967 25.8682 719.675 23.244ZM723.597 6.21181C721.55 8.04369 720.384 10.4961 720.098 13.5692C719.813 16.6422 720.516 19.1744 722.208 21.1656C723.9 23.1569 726.215 24.2152 729.153 24.3404C732.091 24.4657 734.583 23.6123 736.63 21.7805C738.677 19.9486 739.843 17.4962 740.129 14.4231C740.414 11.3501 739.711 8.81793 738.019 6.82665C736.327 4.83538 734.012 3.77711 731.074 3.65186C728.136 3.52661 725.644 4.37994 723.597 6.21181Z" fill="#D2D2D2"/>
<path class="" d="M759.242 6.16133L759.809 3.11523L780.51 4.89035L779.943 7.93645L771.227 7.18903L767.125 29.2285L763.856 28.9482L767.958 6.90875L759.242 6.16133Z" fill="#D2D2D2"/>
<path class="" d="M843.906 40.5129L852.934 16.647L869.991 19.6197L868.895 22.5177L855.069 20.1082L851.974 28.2908L862.927 30.1996L861.831 33.0976L850.878 31.1888L847.138 41.0761L843.906 40.5129Z" fill="#D2D2D2"/>
<path class="" d="M883.099 45.1993C881.756 42.3587 881.93 39.1739 883.619 35.6449C885.308 32.1159 887.921 29.4811 891.456 27.7406C895.026 25.9834 898.686 25.5182 902.435 26.3452C906.185 27.1721 908.731 29.0058 910.073 31.8464C911.45 34.6703 911.294 37.8468 909.604 41.3758C907.915 44.9048 905.286 47.5479 901.716 49.3051C898.18 51.0457 894.538 51.5025 890.788 50.6756C887.039 49.8486 884.476 48.0232 883.099 45.1993ZM892.806 30.1829C890.15 31.5115 888.155 33.5677 886.823 36.3514C885.49 39.1352 885.323 41.5944 886.321 43.729C887.32 45.8636 889.255 47.2476 892.126 47.8808C894.998 48.5141 897.761 48.1664 900.418 46.8378C903.074 45.5092 905.068 43.453 906.401 40.6693C907.733 37.8855 907.9 35.4263 906.902 33.2917C905.904 31.1571 903.969 29.7731 901.097 29.1399C898.226 28.5066 895.462 28.8543 892.806 30.1829Z" fill="#D2D2D2"/>
<path class="" d="M920.883 47.0912L928.871 33.3945L932.04 34.246L924.05 47.9427C922.923 49.8739 922.629 51.567 923.165 53.0222C923.701 54.4774 924.941 55.4667 926.889 55.9902C928.837 56.5137 930.741 56.3695 932.599 55.5576C934.457 54.7458 935.95 53.3742 937.076 51.4431L945.065 37.7463L948.233 38.5978L940.243 52.2945C938.651 55.0233 936.486 56.9667 933.748 58.1247C931.045 59.268 928.239 59.4486 925.329 58.6666C922.419 57.8845 920.543 56.4457 919.703 54.35C918.898 52.2397 919.291 49.8201 920.883 47.0912Z" fill="#D2D2D2"/>
<path class="" d="M953.793 66.3703L968.331 45.4004L972.845 46.8422L972.537 68.332L972.606 68.3542L972.779 68.0436L984.825 50.6685L987.95 51.6667L973.412 72.6366L968.898 71.1948L969.206 49.7049L969.137 49.6827L968.964 49.9934L956.939 67.3385L953.793 66.3703Z" fill="#D2D2D2"/>
<path class="" d="M990.188 79.7439L1006.25 59.9155L1014.1 62.8466C1017.7 64.1889 1019.9 66.2513 1020.7 69.0337C1021.54 71.8057 1020.82 74.5986 1018.54 77.4123C1016.26 80.226 1013.16 82.1448 1009.25 83.1685C1005.37 84.1819 1001.64 84.0174 998.043 82.675L990.188 79.7439ZM995.212 78.4832L999.993 80.2673C1002.77 81.3038 1005.59 81.4461 1008.45 80.6944C1011.34 79.9512 1013.67 78.4748 1015.46 76.2654C1017.25 74.0559 1017.84 71.9254 1017.22 69.8738C1016.62 67.8306 1014.93 66.2908 1012.15 65.2543L1007.37 63.4702L995.212 78.4832Z" fill="#D2D2D2"/>
</g>
<g class="pattern-letter">
<path class="" d="M1060.16 108.983L1078.8 91.564L1083.05 93.6599L1078.59 113.888L1078.65 113.92L1078.88 113.655L1094.33 99.2221L1097.28 100.673L1078.63 118.092L1074.38 115.996L1078.85 95.7684L1078.78 95.7362L1078.55 96.0011L1063.13 110.409L1060.16 108.983Z" fill="#D2D2D2"/>
<path class="" d="M1099.46 126.641C1099.25 123.797 1100.66 121.134 1103.69 118.652C1106.71 116.17 1110.29 114.741 1114.43 114.363C1118.6 113.982 1122.37 114.732 1125.71 116.611C1129.06 118.491 1130.84 120.853 1131.05 123.697C1131.3 126.538 1129.91 129.199 1126.89 131.681C1123.86 134.162 1120.26 135.594 1116.09 135.975C1111.95 136.352 1108.21 135.601 1104.86 133.721C1101.51 131.841 1099.71 129.481 1099.46 126.641ZM1114.8 116.87C1111.68 117.171 1108.93 118.301 1106.55 120.258C1104.16 122.216 1103.04 124.262 1103.19 126.396C1103.34 128.53 1104.69 130.316 1107.26 131.756C1109.82 133.196 1112.66 133.765 1115.78 133.463C1118.89 133.162 1121.64 132.032 1124.03 130.074C1126.41 128.117 1127.53 126.071 1127.39 123.937C1127.24 121.803 1125.88 120.016 1123.32 118.577C1120.76 117.137 1117.92 116.568 1114.8 116.87Z" fill="#D2D2D2"/>
<path class="" d="M1142.7 130.447L1145.21 128.632L1162.73 139.8L1160.22 141.615L1152.84 136.913L1134.67 150.045L1131.9 148.282L1150.07 135.15L1142.7 130.447Z" fill="#D2D2D2"/>
<path class="" d="M1185.7 188.618L1207.95 176.125L1221.33 187.108L1218.63 188.625L1207.78 179.723L1200.16 184.006L1208.75 191.058L1206.05 192.575L1197.45 185.523L1188.24 190.699L1185.7 188.618Z" fill="#D2D2D2"/>
<path class="" d="M1212.67 207.721C1213.13 204.884 1215.11 202.6 1218.62 200.87C1222.13 199.139 1225.93 198.569 1230.03 199.16C1234.16 199.757 1237.64 201.366 1240.44 203.987C1243.25 206.608 1244.42 209.338 1243.96 212.175C1243.54 215.018 1241.58 217.305 1238.07 219.035C1234.56 220.766 1230.74 221.333 1226.6 220.736C1222.5 220.145 1219.05 218.539 1216.25 215.918C1213.44 213.297 1212.25 210.564 1212.67 207.721ZM1229.81 201.704C1226.72 201.276 1223.79 201.744 1221.02 203.109C1218.25 204.474 1216.69 206.22 1216.34 208.347C1215.98 210.473 1216.88 212.54 1219.03 214.547C1221.18 216.555 1223.79 217.773 1226.88 218.201C1229.97 218.629 1232.9 218.161 1235.67 216.796C1238.44 215.431 1240 213.685 1240.35 211.558C1240.71 209.432 1239.81 207.365 1237.66 205.358C1235.51 203.35 1232.89 202.132 1229.81 201.704Z" fill="#D2D2D2"/>
<path class="" d="M1239.15 224.932L1253.71 218.659L1255.95 221.055L1241.39 227.328C1239.34 228.213 1238.13 229.367 1237.77 230.792C1237.41 232.216 1237.92 233.665 1239.3 235.138C1240.68 236.612 1242.39 237.541 1244.44 237.928C1246.49 238.314 1248.55 238.065 1250.6 237.18L1265.16 230.907L1267.4 233.303L1252.84 239.576C1249.94 240.826 1246.99 241.152 1243.98 240.552C1241.02 239.961 1238.51 238.565 1236.45 236.364C1234.39 234.163 1233.59 232.018 1234.05 229.928C1234.55 227.847 1236.25 226.182 1239.15 224.932Z" fill="#D2D2D2"/>
<path class="" d="M1251.2 252.375L1275.11 243.455L1278.09 247.137L1265.83 264.4L1265.88 264.457L1266.2 264.301L1286.01 256.91L1288.07 259.459L1264.17 268.38L1261.18 264.697L1273.44 247.434L1273.39 247.377L1273.08 247.533L1253.3 254.912L1251.2 252.375Z" fill="#D2D2D2"/>
<path class="" d="M1271.04 276.778L1295.34 269.015L1300.12 275.905C1302.31 279.06 1302.95 282.04 1302.03 284.844C1301.16 287.66 1299 289.619 1295.55 290.721C1292.1 291.823 1288.48 291.708 1284.71 290.378C1280.97 289.06 1278 286.824 1275.81 283.668L1271.04 276.778ZM1275.86 278.532L1278.77 282.726C1280.45 285.162 1282.68 286.866 1285.45 287.836C1288.23 288.827 1290.97 288.89 1293.68 288.025C1296.39 287.16 1298.06 285.685 1298.71 283.6C1299.37 281.535 1298.86 279.284 1297.17 276.847L1294.26 272.653L1275.86 278.532Z" fill="#D2D2D2"/>
</g>
<g class="pattern-letter">
<path class="" d="M1302.04 328.1L1326.95 322.605L1329 326.879L1313.41 342.821L1313.44 342.887L1313.78 342.776L1334.43 338.222L1335.85 341.182L1310.93 346.677L1308.88 342.403L1324.47 326.461L1324.44 326.395L1324.1 326.506L1303.49 331.052L1302.04 328.1Z" fill="#D2D2D2"/>
<path class="" d="M1319.03 358.014C1320.66 355.234 1323.4 353.509 1327.26 352.837C1331.11 352.165 1334.73 352.783 1338.1 354.69C1341.51 356.616 1343.89 359.375 1345.25 362.966C1346.61 366.557 1346.47 369.742 1344.85 372.522C1343.25 375.319 1340.53 377.054 1336.67 377.726C1332.82 378.398 1329.19 377.771 1325.78 375.845C1322.4 373.938 1320.03 371.188 1318.68 367.597C1317.32 364.006 1317.44 360.811 1319.03 358.014ZM1336.81 357.242C1334.25 355.821 1331.46 355.376 1328.42 355.906C1325.38 356.435 1323.24 357.74 1322.01 359.82C1320.78 361.9 1320.69 364.315 1321.73 367.065C1322.77 369.815 1324.57 371.901 1327.12 373.321C1329.67 374.742 1332.47 375.187 1335.51 374.657C1338.55 374.127 1340.69 372.823 1341.91 370.743C1343.14 368.663 1343.24 366.248 1342.2 363.498C1341.16 360.748 1339.36 358.662 1336.81 357.242Z" fill="#D2D2D2"/>
<path class="" d="M1346.11 378.71L1349.19 378.312L1354.81 398.315L1351.74 398.713L1349.37 390.29L1327.14 393.169L1326.25 390.011L1348.48 387.132L1346.11 378.71Z" fill="#D2D2D2"/>
<path class="" d="M1336.52 442.786L1362.01 441.697L1363.61 458.938L1360.51 459.07L1359.22 445.096L1350.48 445.469L1351.5 456.54L1348.41 456.672L1347.38 445.602L1336.82 446.053L1336.52 442.786Z" fill="#D2D2D2"/>
<path class="" d="M1339.79 468.092C1342.35 465.364 1345.58 464 1349.5 464C1353.42 464 1356.64 465.364 1359.17 468.092C1361.72 470.846 1363 474.316 1363 478.5C1363 482.684 1361.72 486.141 1359.17 488.868C1356.64 491.623 1353.42 493 1349.5 493C1345.58 493 1342.35 491.623 1339.79 488.868C1337.26 486.141 1336 482.684 1336 478.5C1336 474.316 1337.26 470.846 1339.79 468.092ZM1357.02 470.634C1355.09 468.595 1352.59 467.575 1349.5 467.575C1346.41 467.575 1343.91 468.595 1341.98 470.634C1340.06 472.674 1339.1 475.295 1339.1 478.5C1339.1 481.705 1340.06 484.326 1341.98 486.366C1343.91 488.405 1346.41 489.425 1349.5 489.425C1352.59 489.425 1355.09 488.405 1357.02 486.366C1358.94 484.326 1359.9 481.705 1359.9 478.5C1359.9 475.295 1358.94 472.674 1357.02 470.634Z" fill="#D2D2D2"/>
<path class="" d="M1347.48 493.381L1363.32 494.057L1363.02 497.324L1347.18 496.647C1344.94 496.552 1343.11 497.093 1341.69 498.271C1340.26 499.449 1339.46 501.043 1339.27 503.051C1339.08 505.059 1339.59 506.709 1340.79 507.999C1341.98 509.289 1343.7 509.981 1345.93 510.077L1361.77 510.753L1361.47 514.02L1345.63 513.344C1342.47 513.209 1340.03 512.181 1338.31 510.262C1336.61 508.367 1335.9 505.919 1336.17 502.919C1336.45 499.918 1337.61 497.539 1339.65 495.779C1341.71 494.045 1344.32 493.246 1347.48 493.381Z" fill="#D2D2D2"/>
<path class="" d="M1335.31 520.707L1360.73 522.887L1359.87 527.546L1336.14 538.036L1336.13 538.108L1336.5 538.103L1357.57 539.909L1356.97 543.135L1331.54 540.955L1332.41 536.296L1356.13 525.806L1356.15 525.734L1355.78 525.739L1334.75 523.935L1335.31 520.707Z" fill="#D2D2D2"/>
<path class="" d="M1329.43 548.596L1354.73 551.872L1352.46 559.943C1351.42 563.64 1349.35 566.535 1346.24 568.63C1343.14 570.751 1339.8 571.579 1336.21 571.114C1332.62 570.649 1329.95 569.042 1328.2 566.294C1326.47 563.572 1326.12 560.363 1327.16 556.667L1329.43 548.596ZM1331.61 552.152L1330.23 557.065C1329.43 559.919 1329.67 562.35 1330.95 564.359C1332.23 566.392 1334.28 567.59 1337.1 567.955C1339.92 568.321 1342.47 567.718 1344.76 566.147C1347.04 564.6 1348.59 562.4 1349.39 559.545L1350.77 554.633L1331.61 552.152Z" fill="#D2D2D2"/>
</g>
<g class="pattern-letter">
<path class="" d="M1310.91 603.346L1335.82 608.841L1333.78 613.116L1307.36 619.794L1307.33 619.86L1307.7 619.905L1328.35 624.459L1326.93 627.418L1302.01 621.923L1304.06 617.648L1330.48 610.97L1330.51 610.904L1330.14 610.858L1309.53 606.313L1310.91 603.346Z" fill="#D2D2D2"/>
<path class="" d="M1299.13 634.788C1302.85 633.288 1306.6 633.045 1310.38 634.061C1314.16 635.076 1316.64 636.993 1317.82 639.811C1319.01 642.656 1318.64 645.737 1316.7 649.054C1314.77 652.371 1311.94 654.779 1308.21 656.279C1304.5 657.806 1300.75 658.062 1296.97 657.046C1293.2 656.031 1290.71 654.1 1289.52 651.255C1288.34 648.437 1288.72 645.37 1290.65 642.053C1292.59 638.737 1295.41 636.315 1299.13 634.788ZM1314.57 641.268C1313.65 639.153 1311.71 637.696 1308.73 636.895C1305.75 636.094 1302.86 636.252 1300.06 637.37C1297.27 638.488 1295.13 640.317 1293.64 642.857C1292.16 645.397 1291.88 647.724 1292.79 649.839C1293.7 651.954 1295.65 653.411 1298.63 654.212C1301.61 655.013 1304.5 654.855 1307.29 653.737C1310.09 652.619 1312.23 650.79 1313.71 648.25C1315.19 645.71 1315.48 643.383 1314.57 641.268Z" fill="#D2D2D2"/>
<path class="" d="M1304.12 663.13L1307.07 664.073L1295.24 681.148L1292.28 680.206L1297.27 673.016L1275.91 666.195L1277.78 663.499L1299.14 670.32L1304.12 663.13Z" fill="#D2D2D2"/>
<path class="" d="M1239.7 711.173L1263.14 721.267L1251.31 733.915L1248.47 732.689L1258.05 722.438L1250.02 718.977L1242.42 727.098L1239.58 725.872L1247.17 717.751L1237.46 713.569L1239.7 711.173Z" fill="#D2D2D2"/>
<path class="" d="M1220.84 734.673C1224.95 734.093 1228.77 734.668 1232.27 736.398C1235.78 738.129 1237.76 740.407 1238.19 743.234C1238.64 746.088 1237.45 748.825 1234.65 751.447C1231.84 754.068 1228.38 755.669 1224.26 756.249C1220.15 756.856 1216.34 756.295 1212.83 754.564C1209.32 752.834 1207.35 750.542 1206.9 747.688C1206.47 744.861 1207.65 742.137 1210.46 739.516C1213.26 736.895 1216.72 735.281 1220.84 734.673ZM1234.56 743.875C1234.21 741.749 1232.65 740.003 1229.88 738.638C1227.11 737.273 1224.18 736.805 1221.09 737.233C1218 737.661 1215.38 738.879 1213.24 740.887C1211.09 742.894 1210.19 744.961 1210.54 747.087C1210.9 749.214 1212.46 750.96 1215.23 752.325C1218 753.69 1220.92 754.158 1224.01 753.73C1227.1 753.301 1229.72 752.084 1231.87 750.076C1234.02 748.069 1234.92 746.002 1234.56 743.875Z" fill="#D2D2D2"/>
<path class="" d="M1204.63 757.492L1218.46 765.255L1215.92 767.336L1202.09 759.572C1200.15 758.478 1198.12 758.002 1196.02 758.146C1193.91 758.29 1192.08 759.001 1190.52 760.281C1188.97 761.56 1188.28 762.914 1188.46 764.343C1188.65 765.771 1189.72 767.033 1191.67 768.127L1205.49 775.891L1202.96 777.972L1189.13 770.208C1186.38 768.662 1184.89 766.838 1184.66 764.739C1184.44 762.667 1185.49 760.675 1187.82 758.763C1190.15 756.852 1192.85 755.769 1195.91 755.513C1198.97 755.285 1201.88 755.945 1204.63 757.492Z" fill="#D2D2D2"/>
<path class="" d="M1170.25 774.581L1191.77 788.296L1187.93 791.072L1159.63 786.858L1159.57 786.901L1159.91 787.075L1177.74 798.439L1175.08 800.361L1153.56 786.646L1157.4 783.87L1185.7 788.084L1185.76 788.041L1185.42 787.867L1167.62 776.523L1170.25 774.581Z" fill="#D2D2D2"/>
<path class="" d="M1141.89 795.372L1162.57 810.32L1155.5 814.826C1152.26 816.89 1148.59 817.875 1144.49 817.783C1140.39 817.718 1136.87 816.625 1133.94 814.504C1131 812.382 1129.61 809.924 1129.75 807.127C1129.89 804.359 1131.58 801.942 1134.82 799.878L1141.89 795.372ZM1141.63 798.95L1137.33 801.693C1134.83 803.287 1133.53 805.107 1133.43 807.153C1133.31 809.212 1134.4 811.075 1136.7 812.74C1139.01 814.406 1141.68 815.262 1144.71 815.31C1147.73 815.371 1150.49 814.604 1152.99 813.011L1157.29 810.268L1141.63 798.95Z" fill="#D2D2D2"/>
</g>
<g class="pattern-letter">
<path class="" d="M1078.6 831.934L1097.24 849.353L1092.99 851.449L1066.03 842.313L1065.97 842.345L1066.26 842.578L1081.71 857.011L1078.77 858.462L1060.13 841.043L1064.38 838.947L1091.34 848.083L1091.4 848.051L1091.1 847.818L1075.68 833.41L1078.6 831.934Z" fill="#D2D2D2"/>
<path class="" d="M1042.38 853.038C1046.42 853.912 1049.78 855.778 1052.45 858.636C1055.12 861.494 1056.17 864.341 1055.6 867.177C1055.02 870.041 1052.97 872.232 1049.44 873.751C1045.92 875.27 1042.13 875.593 1038.09 874.719C1034.05 873.873 1030.69 872.021 1028.01 869.163C1025.34 866.305 1024.3 863.444 1024.87 860.58C1025.45 857.744 1027.5 855.566 1031.02 854.047C1034.55 852.528 1038.34 852.192 1042.38 853.038ZM1051.99 866.529C1052.4 864.386 1051.55 862.188 1049.44 859.934C1047.33 857.679 1044.76 856.221 1041.73 855.559C1038.7 854.897 1035.84 855.147 1033.14 856.311C1030.44 857.474 1028.88 859.127 1028.48 861.27C1028.07 863.412 1028.92 865.611 1031.03 867.865C1033.13 870.119 1035.7 871.578 1038.73 872.24C1041.76 872.902 1044.63 872.651 1047.33 871.488C1050.03 870.325 1051.58 868.672 1051.99 866.529Z" fill="#D2D2D2"/>
<path class="" d="M1023.55 880.491L1025.5 882.898L1006.03 890.162L1004.08 887.755L1012.28 884.696L998.172 867.275L1001.24 866.129L1015.35 883.549L1023.55 880.491Z" fill="#D2D2D2"/>
<path class="" d="M928.474 891.214L941.33 913.254L924.609 917.748L923.048 915.072L936.601 911.429L932.193 903.873L921.456 906.758L919.895 904.082L930.632 901.196L925.305 892.065L928.474 891.214Z" fill="#D2D2D2"/>
<path class="" d="M892.369 902.767C895.916 904.53 898.533 907.176 900.222 910.705C901.912 914.234 902.08 917.408 900.727 920.226C899.361 923.072 896.803 924.908 893.053 925.735C889.304 926.562 885.656 926.094 882.11 924.332C878.551 922.597 875.926 919.965 874.237 916.436C872.548 912.907 872.386 909.719 873.753 906.873C875.106 904.055 877.657 902.232 881.406 901.405C885.156 900.578 888.81 901.032 892.369 902.767ZM897.52 918.789C898.518 916.654 898.351 914.195 897.019 911.411C895.686 908.627 893.692 906.571 891.036 905.243C888.379 903.914 885.616 903.566 882.744 904.2C879.873 904.833 877.938 906.217 876.939 908.351C875.941 910.486 876.108 912.945 877.441 915.729C878.773 918.513 880.768 920.569 883.424 921.898C886.08 923.226 888.844 923.574 891.715 922.941C894.587 922.307 896.522 920.923 897.52 918.789Z" fill="#D2D2D2"/>
<path class="" d="M859.956 916.33L865.566 931.161L862.334 931.724L856.724 916.893C855.933 914.802 854.695 913.249 853.01 912.235C851.325 911.22 849.489 910.886 847.502 911.232C845.514 911.579 844.143 912.472 843.386 913.912C842.629 915.352 842.646 917.118 843.437 919.209L849.048 934.04L845.816 934.603L840.205 919.772C839.088 916.817 839.103 914.295 840.252 912.205C841.386 910.142 843.437 908.852 846.405 908.334C849.374 907.817 852.099 908.275 854.58 909.708C857.047 911.168 858.839 913.375 859.956 916.33Z" fill="#D2D2D2"/>
<path class="" d="M816.648 914.775L823.552 939.339L818.852 939.948L800.598 920.854L800.526 920.863L800.66 921.209L806.38 941.563L803.127 941.984L796.223 917.419L800.923 916.811L819.177 935.905L819.25 935.896L819.115 935.55L813.404 915.231L816.648 914.775Z" fill="#D2D2D2"/>
<path class="" d="M775.611 920.048L780.279 945.133L771.926 945.849C768.101 946.177 764.716 945.242 761.773 943.043C758.811 940.869 756.998 938.003 756.335 934.443C755.673 930.884 756.376 927.789 758.445 925.16C760.494 922.557 763.432 921.092 767.257 920.764L775.611 920.048ZM772.909 923.374L767.824 923.81C764.87 924.063 762.638 925.153 761.127 927.078C759.591 929.006 759.084 931.368 759.604 934.163C760.124 936.958 761.48 939.16 763.674 940.768C765.843 942.378 768.405 943.057 771.359 942.803L776.444 942.367L772.909 923.374Z" fill="#D2D2D2"/>

</g>
<g class="pattern-letter">
<path class="" d="M693 922V947H688.168L675.382 925.929H675.308L675.345 926.286V947H672V922H676.832L689.618 943.071H689.692L689.655 942.714V922.036L693 922Z" fill="#D2D2D2"/>
<path class="" d="M645.244 926.755C647.509 929.403 648.461 932.675 648.1 936.57C647.739 940.466 646.192 943.619 643.458 946.029C640.697 948.462 637.399 949.596 633.563 949.432C629.727 949.269 626.676 947.863 624.411 945.215C622.119 942.591 621.154 939.331 621.515 935.435C621.876 931.539 623.437 928.375 626.197 925.942C628.931 923.532 632.216 922.409 636.052 922.573C639.888 922.737 642.952 924.131 645.244 926.755ZM641.325 943.788C643.372 941.956 644.538 939.503 644.823 936.43C645.107 933.357 644.404 930.825 642.711 928.834C641.019 926.842 638.704 925.784 635.766 925.658C632.829 925.533 630.336 926.386 628.29 928.218C626.243 930.05 625.077 932.502 624.792 935.575C624.507 938.648 625.211 941.18 626.904 943.172C628.596 945.163 630.911 946.222 633.849 946.347C636.786 946.473 639.279 945.619 641.325 943.788Z" fill="#D2D2D2"/>
<path class="" d="M605.729 943.85L605.162 946.896L584.461 945.121L585.027 942.075L593.744 942.822L597.846 920.783L601.115 921.063L597.013 943.102L605.729 943.85Z" fill="#D2D2D2"/>
<path class="" d="M521.035 909.5L512.007 933.366L494.949 930.393L496.046 927.495L509.871 929.905L512.966 921.722L502.014 919.813L503.11 916.915L514.063 918.824L517.803 908.937L521.035 909.5Z" fill="#D2D2D2"/>
<path class="" d="M481.85 904.808C483.193 907.649 483.02 910.834 481.33 914.363C479.641 917.892 477.028 920.527 473.493 922.267C469.923 924.024 466.264 924.49 462.514 923.663C458.765 922.836 456.219 921.002 454.876 918.161C453.499 915.337 453.656 912.161 455.345 908.632C457.034 905.103 459.664 902.46 463.233 900.703C466.769 898.962 470.411 898.505 474.161 899.332C477.91 900.159 480.474 901.985 481.85 904.808ZM472.143 919.825C474.8 918.496 476.794 916.44 478.127 913.656C479.459 910.873 479.626 908.413 478.628 906.279C477.629 904.144 475.695 902.76 472.823 902.127C469.952 901.494 467.188 901.841 464.532 903.17C461.875 904.499 459.881 906.555 458.548 909.339C457.216 912.122 457.049 914.581 458.047 916.716C459.046 918.851 460.98 920.235 463.852 920.868C466.723 921.501 469.487 921.154 472.143 919.825Z" fill="#D2D2D2"/>
<path class="" d="M444.07 902.919L436.08 916.616L432.912 915.765L440.901 902.068C442.028 900.137 442.323 898.443 441.787 896.988C441.252 895.533 440.01 894.544 438.062 894.02C436.114 893.497 434.211 893.641 432.353 894.453C430.495 895.265 429.003 896.636 427.876 898.567L419.887 912.264L416.719 911.413L424.708 897.716C426.3 894.987 428.465 893.044 431.204 891.886C433.907 890.742 436.713 890.562 439.623 891.344C442.533 892.126 444.409 893.565 445.25 895.66C446.055 897.771 445.661 900.19 444.07 902.919Z" fill="#D2D2D2"/>
<path class="" d="M411.165 883.636L396.627 904.606L392.113 903.164L392.421 881.675L392.352 881.652L392.179 881.963L380.133 899.338L377.008 898.34L391.546 877.37L396.06 878.812L395.752 900.302L395.821 900.324L395.994 900.013L408.019 882.668L411.165 883.636Z" fill="#D2D2D2"/>
<path class="" d="M374.767 870.269L358.707 890.097L350.852 887.166C347.255 885.824 345.056 883.761 344.256 880.979C343.417 878.207 344.138 875.414 346.417 872.6C348.696 869.786 351.791 867.868 355.704 866.844C359.579 865.831 363.315 865.995 366.912 867.337L374.767 870.269ZM369.743 871.529L364.962 869.745C362.184 868.709 359.364 868.566 356.502 869.318C353.617 870.061 351.28 871.538 349.49 873.747C347.701 875.957 347.117 878.087 347.738 880.139C348.337 882.182 350.025 883.722 352.802 884.758L357.583 886.542L369.743 871.529Z" fill="#D2D2D2"/>
</g>
<g class="pattern-letter">
<path class="pattern-letter" d="M304.789 841.03L286.144 858.449L281.893 856.353L286.363 836.125L286.297 836.093L286.064 836.358L270.615 850.791L267.672 849.34L286.318 831.921L290.568 834.016L286.098 854.245L286.164 854.277L286.398 854.012L301.82 839.604L304.789 841.03Z" fill="#D2D2D2"/>
<path class="" d="M265.487 823.371C265.697 826.215 264.289 828.878 261.265 831.36C258.24 833.842 254.659 835.271 250.523 835.649C246.347 836.03 242.585 835.281 239.237 833.401C235.889 831.521 234.11 829.159 233.9 826.315C233.65 823.474 235.038 820.813 238.062 818.332C241.087 815.85 244.688 814.418 248.864 814.037C253 813.66 256.742 814.411 260.09 816.291C263.438 818.171 265.237 820.531 265.487 823.371ZM250.152 833.143C253.267 832.841 256.018 831.711 258.404 829.754C260.79 827.796 261.909 825.75 261.762 823.617C261.615 821.483 260.259 819.696 257.695 818.256C255.131 816.816 252.291 816.247 249.176 816.549C246.06 816.851 243.309 817.98 240.923 819.938C238.537 821.895 237.418 823.941 237.565 826.075C237.713 828.209 239.068 829.996 241.632 831.435C244.196 832.875 247.036 833.444 250.152 833.143Z" fill="#D2D2D2"/>
<path class="" d="M222.251 819.562L219.74 821.377L202.219 810.209L204.73 808.394L212.108 813.096L230.276 799.964L233.043 801.727L214.874 814.86L222.251 819.562Z" fill="#D2D2D2"/>
<path class="" d="M179.232 761.39L156.983 773.883L143.598 762.9L146.299 761.383L157.149 770.285L164.777 766.002L156.182 758.95L158.884 757.433L167.479 764.485L176.696 759.309L179.232 761.39Z" fill="#D2D2D2"/>
<path class="" d="M152.278 742.288C151.819 745.126 149.835 747.409 146.326 749.14C142.817 750.87 139.014 751.44 134.919 750.849C130.783 750.252 127.313 748.644 124.507 746.022C121.702 743.401 120.528 740.672 120.988 737.835C121.408 734.991 123.372 732.705 126.881 730.974C130.39 729.244 134.212 728.677 138.348 729.274C142.443 729.865 145.894 731.471 148.7 734.092C151.505 736.713 152.698 739.445 152.278 742.288ZM135.143 748.305C138.232 748.734 141.16 748.265 143.928 746.9C146.696 745.535 148.258 743.79 148.612 741.663C148.967 739.536 148.07 737.47 145.921 735.462C143.772 733.455 141.153 732.237 138.064 731.809C134.975 731.38 132.046 731.849 129.279 733.214C126.511 734.579 124.949 736.325 124.595 738.451C124.24 740.578 125.137 742.645 127.286 744.652C129.435 746.659 132.054 747.877 135.143 748.305Z" fill="#D2D2D2"/>
<path class="" d="M125.81 725.079L111.247 731.352L109.007 728.956L123.569 722.683C125.623 721.798 126.829 720.644 127.188 719.219C127.546 717.795 127.037 716.346 125.66 714.873C124.282 713.399 122.567 712.47 120.516 712.083C118.464 711.697 116.412 711.946 114.358 712.831L99.7952 719.104L97.5547 716.708L112.118 710.435C115.019 709.185 117.971 708.859 120.973 709.459C123.937 710.05 126.447 711.446 128.505 713.647C130.563 715.848 131.364 717.993 130.906 720.083C130.41 722.164 128.711 723.829 125.81 725.079Z" fill="#D2D2D2"/>
<path class="" d="M113.756 697.635L89.8492 706.556L86.8666 702.874L99.1239 685.611L99.078 685.554L98.7594 685.71L78.9515 693.101L76.8867 690.552L100.793 681.631L103.776 685.314L91.5181 702.577L91.564 702.633L91.8825 702.478L111.657 695.099L113.756 697.635Z" fill="#D2D2D2"/>
<path class="" d="M93.8874 673.23L69.5808 680.994L64.8042 674.104C62.6166 670.948 61.9788 667.969 62.8907 665.165C63.7657 662.348 65.9278 660.389 69.377 659.288C72.8263 658.186 76.4399 658.3 80.2178 659.631C83.9588 660.948 86.9231 663.185 89.1107 666.34L93.8874 673.23ZM89.0667 671.477L86.1592 667.283C84.47 664.846 82.2428 663.143 79.4775 662.172C76.6984 661.182 73.9546 661.119 71.2462 661.984C68.5377 662.849 66.8601 664.324 66.2131 666.409C65.5523 668.474 66.0665 670.725 67.7557 673.161L70.6632 677.355L89.0667 671.477Z" fill="#D2D2D2"/>
</g>
<g class="pattern-letter">
<path class="" d="M62.9038 621.909L37.9863 627.405L35.9402 623.131L51.5279 607.188L51.4963 607.123L51.1562 607.234L30.5103 611.787L29.0938 608.828L54.0112 603.333L56.0573 607.607L40.4696 623.549L40.501 623.615L40.8413 623.504L61.4516 618.958L62.9038 621.909Z" fill="#D2D2D2"/>
<path class="" d="M45.9222 591.995C44.294 594.774 41.5529 596.5 37.6985 597.171C33.8441 597.843 30.2292 597.225 26.8538 595.318C23.4459 593.392 21.0627 590.634 19.7042 587.043C18.3458 583.451 18.4806 580.266 20.1088 577.487C21.7044 574.689 24.4294 572.954 28.2838 572.283C32.1382 571.611 35.7693 572.238 39.1772 574.164C42.5526 576.071 44.9195 578.82 46.278 582.411C47.6364 586.003 47.5178 589.197 45.9222 591.995ZM28.1471 592.767C30.7005 594.188 33.4973 594.633 36.5378 594.103C39.5782 593.573 41.7129 592.268 42.9422 590.189C44.1714 588.109 44.266 585.694 43.2257 582.943C42.1853 580.193 40.3884 578.108 37.835 576.687C35.2817 575.267 32.4849 574.821 29.4445 575.351C26.4041 575.881 24.2693 577.186 23.04 579.266C21.8107 581.345 21.7163 583.76 22.7566 586.511C23.797 589.261 25.5938 591.346 28.1471 592.767Z" fill="#D2D2D2"/>
<path class="" d="M18.8388 571.296L15.766 571.694L10.1445 551.692L13.2172 551.294L15.5842 559.716L37.8165 556.837L38.7041 559.996L16.4718 562.874L18.8388 571.296Z" fill="#D2D2D2"/>
<path class="" d="M28.4271 507.226L2.93398 508.315L1.33594 491.074L4.43153 490.942L5.72678 504.916L14.4673 504.543L13.4412 493.472L16.5367 493.34L17.5629 504.411L28.1243 503.96L28.4271 507.226Z" fill="#D2D2D2"/>
<path class="" d="M23.2054 482.049C20.6513 484.683 17.4162 486 13.5 486C9.58378 486 6.36081 484.683 3.83108 482.049C1.27703 479.39 0 476.04 0 472C0 467.96 1.27703 464.623 3.83108 461.989C6.36081 459.33 9.58378 458 13.5 458C17.4162 458 20.6513 459.33 23.2054 461.989C25.7351 464.623 27 467.96 27 472C27 476.04 25.7351 479.39 23.2054 482.049ZM5.98379 479.595C7.90541 481.563 10.4108 482.548 13.5 482.548C16.5892 482.548 19.0946 481.563 21.0162 479.595C22.9378 477.626 23.8986 475.094 23.8986 472C23.8986 468.906 22.9378 466.374 21.0162 464.405C19.0946 462.437 16.5892 461.452 13.5 461.452C10.4108 461.452 7.90541 462.437 5.98379 464.405C4.06217 466.374 3.10135 468.906 3.10135 472C3.10135 475.094 4.06217 477.626 5.98379 479.595Z" fill="#D2D2D2"/>
<path class="" d="M17.4749 456.633L1.63281 455.957L1.9356 452.69L17.7777 453.367C20.0114 453.462 21.841 452.921 23.2664 451.743C24.6919 450.565 25.4977 448.971 25.6838 446.963C25.87 444.954 25.3647 443.305 24.168 442.015C22.9714 440.725 21.2562 440.032 19.0225 439.937L3.18039 439.261L3.48318 435.994L19.3253 436.67C22.4816 436.805 24.9214 437.832 26.6447 439.752C28.346 441.647 29.0575 444.095 28.7794 447.095C28.5013 450.096 27.3423 452.475 25.3023 454.235C23.2403 455.969 20.6312 456.768 17.4749 456.633Z" fill="#D2D2D2"/>
<path class="" d="M29.6378 429.305L4.21484 427.125L5.08191 422.467L28.8043 411.976L28.8176 411.904L28.4478 411.909L7.38298 410.103L7.98326 406.878L33.4063 409.058L32.5392 413.716L8.81684 424.207L8.8035 424.278L9.17335 424.274L30.2018 426.077L29.6378 429.305Z" fill="#D2D2D2"/>
<path class="" d="M35.5238 401.417L10.2188 398.141L12.4871 390.069C13.5259 386.373 15.6009 383.478 18.7122 381.383C21.806 379.262 25.1485 378.434 28.7394 378.899C32.3303 379.364 35.0009 380.971 36.7512 383.719C38.484 386.44 38.8309 389.65 37.792 393.346L35.5238 401.417ZM33.3386 397.861L34.7193 392.948C35.5214 390.094 35.2807 387.662 33.997 385.653C32.7199 383.621 30.6715 382.422 27.8518 382.057C25.0321 381.692 22.4774 382.295 20.1877 383.865C17.9046 385.412 16.362 387.613 15.5599 390.467L14.1791 395.38L33.3386 397.861Z" fill="#D2D2D2"/>
</g>
<g class="pattern-letter">
<path class="" d="M54.0191 346.664L29.1016 341.169L31.1476 336.895L57.5637 330.216L57.5952 330.15L57.2235 330.105L36.5776 325.551L37.9941 322.592L62.9116 328.088L60.8655 332.362L34.4494 339.041L34.4179 339.106L34.7896 339.152L55.4 343.697L54.0191 346.664Z" fill="#D2D2D2"/>
<path class="" d="M65.8225 315.228C62.0971 316.728 58.3452 316.97 54.5668 315.954C50.7884 314.939 48.3094 313.022 47.1298 310.204C45.939 307.359 46.3109 304.278 48.2455 300.961C50.1801 297.645 53.0101 295.237 56.7354 293.737C60.4496 292.21 64.1959 291.954 67.9743 292.969C71.7527 293.985 74.2373 295.915 75.4281 298.76C76.6077 301.578 76.2302 304.646 74.2956 307.962C72.361 311.279 69.5366 313.701 65.8225 315.228ZM50.3822 308.747C51.2934 310.862 53.2393 312.32 56.2198 313.121C59.2003 313.922 62.0889 313.763 64.8858 312.645C67.6826 311.527 69.8218 309.698 71.3033 307.158C72.7849 304.618 73.0701 302.291 72.1589 300.176C71.2477 298.062 69.3018 296.604 66.3213 295.803C63.3408 295.002 60.4522 295.161 57.6553 296.279C54.8585 297.397 52.7193 299.226 51.2378 301.766C49.7562 304.306 49.471 306.633 50.3822 308.747Z" fill="#D2D2D2"/>
<path class="" d="M60.8109 286.881L57.8594 285.938L69.6972 268.863L72.6487 269.805L67.6644 276.995L89.0194 283.816L87.1503 286.512L65.7952 279.691L60.8109 286.881Z" fill="#D2D2D2"/>
<path class="" d="M125.248 238.838L101.812 228.743L113.639 216.096L116.484 217.321L106.9 227.573L114.934 231.034L122.527 222.912L125.373 224.138L117.78 232.259L127.489 236.441L125.248 238.838Z" fill="#D2D2D2"/>
<path class="" d="M144.11 215.335C139.993 215.915 136.179 215.34 132.67 213.609C129.161 211.879 127.188 209.6 126.75 206.774C126.309 203.92 127.491 201.182 130.296 198.561C133.102 195.94 136.564 194.339 140.681 193.759C144.795 193.152 148.606 193.713 152.115 195.444C155.624 197.174 157.599 199.466 158.041 202.32C158.479 205.147 157.295 207.871 154.489 210.492C151.683 213.113 148.224 214.727 144.11 215.335ZM130.384 206.132C130.739 208.259 132.3 210.005 135.068 211.37C137.836 212.735 140.764 213.203 143.853 212.775C146.943 212.346 149.561 211.129 151.71 209.121C153.859 207.114 154.756 205.047 154.401 202.92C154.047 200.794 152.486 199.048 149.718 197.683C146.95 196.318 144.021 195.85 140.932 196.278C137.843 196.706 135.224 197.924 133.075 199.932C130.927 201.939 130.03 204.006 130.384 206.132Z" fill="#D2D2D2"/>
<path class="" d="M160.318 192.518L146.492 184.754L149.028 182.673L162.854 190.437C164.804 191.532 166.83 192.007 168.932 191.864C171.034 191.72 172.865 191.008 174.425 189.729C175.984 188.45 176.67 187.096 176.484 185.667C176.298 184.238 175.231 182.977 173.281 181.882L159.455 174.118L161.991 172.038L175.817 179.801C178.572 181.348 180.062 183.171 180.287 185.271C180.509 187.343 179.456 189.335 177.126 191.246C174.797 193.157 172.102 194.241 169.043 194.496C165.981 194.724 163.073 194.065 160.318 192.518Z" fill="#D2D2D2"/>
<path class="" d="M194.701 175.432L173.184 161.717L177.024 158.941L205.322 163.155L205.382 163.113L205.045 162.938L187.216 151.574L189.875 149.652L211.392 163.367L207.552 166.143L179.253 161.929L179.194 161.972L179.531 162.147L197.329 173.491L194.701 175.432Z" fill="#D2D2D2"/>
<path class="" d="M223.055 154.639L202.375 139.692L209.445 135.186C212.683 133.122 216.352 132.136 220.451 132.229C224.552 132.294 228.07 133.387 231.004 135.508C233.939 137.629 235.335 140.088 235.193 142.884C235.052 145.653 233.362 148.069 230.125 150.133L223.055 154.639ZM223.31 151.061L227.614 148.318C230.114 146.724 231.414 144.905 231.514 142.858C231.634 140.799 230.542 138.937 228.238 137.271C225.934 135.606 223.264 134.749 220.228 134.701C217.214 134.641 214.456 135.407 211.956 137.001L207.653 139.744L223.31 151.061Z" fill="#D2D2D2"/>
</g>
<g class="pattern-letter">
<path class="" d="M286.337 118.079L267.691 100.66L271.941 98.564L298.903 107.7L298.968 107.668L298.669 107.435L283.22 93.0018L286.163 91.5508L304.808 108.97L300.558 111.066L273.596 101.93L273.531 101.963L273.83 102.195L289.253 116.604L286.337 118.079Z" fill="#D2D2D2"/>
<path class="" d="M322.567 96.9753C318.525 96.1016 315.168 94.2359 312.496 91.3779C309.824 88.52 308.775 85.6729 309.347 82.8365C309.926 79.9728 311.978 77.7815 315.505 76.2625C319.031 74.7435 322.815 74.4208 326.856 75.2944C330.904 76.1407 334.263 77.9928 336.935 80.8507C339.607 83.7086 340.654 86.5695 340.076 89.4332C339.503 92.2695 337.453 94.4472 333.927 95.9662C330.401 97.4852 326.614 97.8215 322.567 96.9753ZM312.959 83.4846C312.551 85.6272 313.402 87.8257 315.509 90.0801C317.617 92.3345 320.186 93.7927 323.215 94.4547C326.245 95.1168 329.11 94.8662 331.811 93.7029C334.511 92.5396 336.065 90.8867 336.473 88.7441C336.88 86.6015 336.03 84.403 333.922 82.1486C331.814 79.8942 329.246 78.436 326.216 77.7739C323.186 77.1118 320.321 77.3624 317.621 78.5257C314.92 79.689 313.366 81.342 312.959 83.4846Z" fill="#D2D2D2"/>
<path class="" d="M341.384 69.5195L339.434 67.1117L358.9 59.8477L360.85 62.2555L352.654 65.314L366.763 82.7347L363.69 83.8816L349.58 66.4609L341.384 69.5195Z" fill="#D2D2D2"/>
<path class="" d="M436.47 58.7927L423.613 36.7521L440.335 32.2583L441.896 34.9347L428.343 38.577L432.751 46.1338L443.487 43.2483L445.049 45.9247L434.312 48.8102L439.638 57.9413L436.47 58.7927Z" fill="#D2D2D2"/>
<path class="" d="M472.577 47.2418C469.031 45.4794 466.413 42.8337 464.724 39.3047C463.035 35.7756 462.866 32.6018 464.219 29.7831C465.586 26.9373 468.144 25.1009 471.893 24.274C475.643 23.4471 479.29 23.9148 482.836 25.6773C486.396 27.4126 489.02 30.0447 490.709 33.5737C492.399 37.1027 492.56 40.2901 491.194 43.136C489.841 45.9547 487.289 47.7775 483.54 48.6044C479.79 49.4313 476.136 48.9771 472.577 47.2418ZM467.426 31.2206C466.428 33.3552 466.595 35.8144 467.928 38.5981C469.26 41.3819 471.254 43.438 473.911 44.7667C476.567 46.0953 479.331 46.443 482.202 45.8097C485.074 45.1764 487.008 43.7925 488.007 41.6578C489.005 39.5232 488.838 37.064 487.506 34.2803C486.173 31.4965 484.179 29.4404 481.522 28.1117C478.866 26.7831 476.102 26.4354 473.231 27.0687C470.359 27.702 468.425 29.0859 467.426 31.2206Z" fill="#D2D2D2"/>
<path class="" d="M504.993 33.6808L499.383 18.8498L502.615 18.2866L508.225 33.1175C509.016 35.2086 510.254 36.7615 511.939 37.7761C513.624 38.7907 515.461 39.1248 517.448 38.7785C519.435 38.4322 520.807 37.539 521.563 36.0988C522.32 34.6586 522.303 32.893 521.512 30.8019L515.902 15.971L519.134 15.4077L524.744 30.2386C525.861 33.1935 525.846 35.7159 524.697 37.8059C523.564 39.8689 521.513 41.1592 518.544 41.6765C515.575 42.1939 512.85 41.736 510.369 40.303C507.903 38.843 506.111 36.6356 504.993 33.6808Z" fill="#D2D2D2"/>
<path class="" d="M548.297 35.2351L541.395 10.6705L546.094 10.062L564.348 29.1563L564.421 29.1469L564.286 28.8007L558.565 8.44714L561.818 8.02588L568.723 32.5905L564.023 33.199L545.768 14.1047L545.697 14.1141L545.831 14.4603L551.542 34.7788L548.297 35.2351Z" fill="#D2D2D2"/>
<path class="" d="M589.321 29.9633L584.652 4.8778L593.006 4.16152C596.831 3.83349 600.215 4.76904 603.158 6.96818C606.121 9.14136 607.934 12.0079 608.596 15.5676C609.259 19.1274 608.556 22.2217 606.487 24.8506C604.437 27.4536 601.5 28.919 597.674 29.2471L589.321 29.9633ZM592.023 26.637L597.108 26.201C600.061 25.9477 602.294 24.8582 603.805 22.9325C605.34 21.0047 605.848 18.6431 605.328 15.8479C604.807 13.0527 603.451 10.851 601.257 9.24291C599.088 7.63277 596.526 6.95433 593.573 7.20762L588.488 7.64362L592.023 26.637Z" fill="#D2D2D2"/>
</g>
<!-- <path class="pattern-path" d="M1363.5 471.5C1363.5 595.404 1287.3 707.642 1163.97 788.927C1040.65 870.209 870.245 920.5 682 920.5C493.755 920.5 323.353 870.209 200.028 788.927C76.6992 707.642 0.5 595.404 0.5 471.5C0.5 347.596 76.6992 235.358 200.028 154.073C323.353 72.7905 493.755 22.5 682 22.5C870.245 22.5 1040.65 72.7905 1163.97 154.073C1287.3 235.358 1363.5 347.596 1363.5 471.5Z" stroke="black"/> -->

</svg>
